<?xml version="1.0" encoding="UTF-8" standalone="no"?>
<svg
   xmlns:dc="http://purl.org/dc/elements/1.1/"
   xmlns:cc="http://creativecommons.org/ns#"
   xmlns:rdf="http://www.w3.org/1999/02/22-rdf-syntax-ns#"
   xmlns:svg="http://www.w3.org/2000/svg"
   xmlns="http://www.w3.org/2000/svg"
   viewBox="0 0 272 412"
   height="412"
   width="272"
   xml:space="preserve"
   id="svg2"
   version="1.1"><metadata
     id="metadata8"><rdf:RDF><cc:Work
         rdf:about=""><dc:format>image/svg+xml</dc:format><dc:type
           rdf:resource="http://purl.org/dc/dcmitype/StillImage" /></cc:Work></rdf:RDF></metadata><defs
     id="defs6" /><g
     transform="matrix(1.3333333,0,0,-1.3333333,0,412)"
     id="g10"><g
       transform="scale(0.1)"
       id="g12"><path
         id="path14"
         style="fill:#ffffff;fill-opacity:1;fill-rule:nonzero;stroke:none"
         d="M 925.496,3001.52 H 1103 c 0,0 2.5,-32.5 47.5,-47.5 45,-15 145,-25 187.5,-7.5 42.5,17.5 185,87.5 245,87.5 60,0 230,-62.5 270,-67.5 40,-5 110,5 127.5,-22.5 17.5,-27.5 27.5,-675 22.5,-702.5 -5,-27.5 -52.5,-75 -52.5,-75 l 2.5,-552.5 c 0,0 -45,22.5 -77.5,-37.5 -32.5,-60 -22.5,-162.5 -22.5,-200 0,-37.5 -10,-262.5 -2.5,-287.5 7.5,-25 17.5,-77.5 32.5,-85 15,-7.497 42.5,-14.997 42.5,-14.997 0,0 62.5,-582.5 -57.5,-685 -120,-102.5 -462.5,-95 -575,-110 -112.5,-15 -117.5,-15 -175,-62.5 -57.5,-47.4996 -107.5,-102.4996 -107.5,-102.4996 0,0 -37.504,79.9996 -112.504,114.9996 -75,35 -117.5,52.5 -192.5,52.5 -75,0 -165,0 -270,2.5 -105,2.5 -187.5,5 -222.5,32.5 -35,27.5 -50,25 -100,112.5 -49.9999,87.5 -49.9999,150 -47.4999,190 2.5,40 0,450 0,450 0,0 27.5,-10 62.4999,12.5 35,22.497 27.5,59.997 35,89.997 7.5,30 5,407.5 5,407.5 0,0 -25,102.5 -42.5,127.5 -17.5,25 -47.4999,60 -47.4999,60 l 2.5,485 c 0,0 -45,25 -57.5,80 -12.5,55 -7.5,415 -7.5,415 0,0 -12.50001,247.5 20,275 32.5,27.5 132.4999,25 179.9999,42.5 47.5,17.5 130,55 187.5,57.5 57.5,2.5 247.5,-67.5 310,-82.5 62.5,-15 122.5,-22.5 157.5,-2.5 35,20 55,50 55,50" /><path
         id="path16"
         style="fill:#1a67bb;fill-opacity:1;fill-rule:nonzero;stroke:none"
         d="m 202.09,241.012 107.5,-43.996 c 0,0 362.5,2.5 381.586,1.082 170.265,154.769 390.274,358.058 485.004,459.644 165.04,176.988 133.68,218.274 304.72,401.698 168.31,180.49 199.45,157.18 368.13,320.67 2.74,2.65 8.34,4.18 8.33,8.12 -0.27,116.29 -10.27,218.79 97.23,228.79 v 480 c -117.5,-170 -192.92,-282.64 -360.97,-462.85 C 1425.57,1453.96 1388.21,1488.81 1217.16,1305.38 1046.12,1121.96 1077.48,1080.68 912.438,903.688 747.391,726.695 202.09,241.012 202.09,241.012" /><path
         id="path18"
         style="fill:#1a67bb;fill-opacity:1;fill-rule:nonzero;stroke:none"
         d="m 62.0898,547.016 7.5,-5 c 0,0 391.5432,343.738 556.5862,520.724 165.047,176.99 133.679,218.28 304.726,401.7 171.048,183.42 208.418,148.58 376.458,328.79 168.05,180.2 119.73,156.29 227.23,311.29 0,0 -17.18,-4.4 -72.5,25 -80,42.5 -124.9,88.69 -147.5,100 -10,5 -2.5,-27.5 -12.54,-40.84 -11.01,-14.63 -82.46,-1.66 -82.46,-1.66 l -15,52.5 c -15,7.5 -89.04,-152.16 -167.5,-202.5 C 859.449,1923.04 838.207,1893.81 667.16,1710.38 496.117,1526.96 527.48,1485.68 362.438,1308.69 314.637,1257.43 268.859,1211.25 168.973,1117.66 162.09,1087.02 129.59,947.016 65.2656,1021.34 64.5898,719.516 62.0898,547.016 62.0898,547.016" /><path
         id="path20"
         style="fill:#1a67bb;fill-opacity:1;fill-rule:nonzero;stroke:none"
         d="m 99.5898,1627.02 c 51.0702,0 37.5082,-90.61 58.5942,-62.73 78.816,104.2 87.773,160.44 222.718,305.15 171.047,183.42 196.813,131.08 360.278,315.45 12.226,13.79 -39.09,-32.87 -9.09,64.63 l -112.5,-82.5 c -60,-27.5 -172.5,-80 -210,-82.5 -269.582,-17.98 -330.0002,117.5 -330.0002,100 0,-220.06 -5,-250.51 -5,-492.5 0,-62.5 7.5,-65 25,-65" /><path
         id="path22"
         style="fill:#1a67bb;fill-opacity:1;fill-rule:evenodd;stroke:none"
         d="m 1852.09,282.016 c 100.86,114.617 90,195 101.04,249.675 -1.04,5.325 -1.04,490.329 1.12,494.789 -54.36,-38.675 -107.3,-74.816 -197.09,-171.097 C 1586.12,671.957 1617.48,630.676 1452.44,453.688 1366.03,361.02 1175.38,183.738 1013.33,35.8438 c 96.26,141.1722 238.76,158.6722 348.76,156.1722 417.5,-10 432.06,24.164 490,90" /><path
         id="path24"
         style="fill:none;stroke:#fab218;stroke-width:10.0010004;stroke-linecap:butt;stroke-linejoin:miter;stroke-miterlimit:3.8636899;stroke-dasharray:none;stroke-opacity:1"
         d="m 99.5898,1627.02 c 51.0702,0 37.5082,-90.61 58.5942,-62.73 78.816,104.2 87.773,160.44 222.718,305.15 171.047,183.42 200.219,135.71 363.688,320.08 12.223,13.78 -42.5,-37.5 -12.5,60 l -112.5,-82.5 c -60,-27.5 -172.5,-80 -210,-82.5 -269.582,-17.98 -330.0002,117.5 -330.0002,100 0,-220.06 -5,-250.51 -5,-492.5 0,-62.5 7.5,-65 25,-65 z" /><path
         id="path26"
         style="fill:none;stroke:#fab218;stroke-width:10.0010004;stroke-linecap:butt;stroke-linejoin:miter;stroke-miterlimit:3.8636899;stroke-dasharray:none;stroke-opacity:1"
         d="m 202.09,241.012 107.5,-43.996 c 0,0 362.5,2.5 381.586,1.082 170.265,154.769 390.274,358.058 485.004,459.644 165.04,176.988 133.68,218.274 304.72,401.698 168.31,180.49 199.45,157.18 368.13,320.67 2.74,2.65 8.34,4.18 8.33,8.12 -0.27,116.29 -10.27,218.79 97.23,228.79 v 480 c -117.5,-170 -192.92,-282.64 -360.97,-462.85 C 1425.57,1453.96 1388.21,1488.81 1217.16,1305.38 1046.12,1121.96 1077.48,1080.68 912.438,903.688 747.391,726.695 202.09,241.012 202.09,241.012 Z" /><path
         id="path28"
         style="fill:none;stroke:#fab218;stroke-width:10.0010004;stroke-linecap:butt;stroke-linejoin:miter;stroke-miterlimit:3.8636899;stroke-dasharray:none;stroke-opacity:1"
         d="m 62.0898,547.016 7.5,-5 c 0,0 408.4612,375.738 556.5862,520.724 115.375,112.93 133.679,218.28 304.726,401.7 171.048,183.42 208.418,148.58 376.458,328.79 168.05,180.2 119.73,156.29 227.23,311.29 0,0 -17.18,-4.4 -72.5,25 -80,42.5 -124.9,88.69 -147.5,100 -10,5 -2.5,-27.5 -12.54,-40.84 -11.01,-14.63 -82.46,-1.66 -82.46,-1.66 l -15,52.5 c -15,7.5 -89.04,-152.16 -167.5,-202.5 C 859.449,1923.04 838.207,1893.81 667.16,1710.38 496.117,1526.96 527.48,1485.68 362.438,1308.69 314.637,1257.43 268.859,1211.25 168.973,1117.66 162.09,1087.02 129.59,947.016 65.2656,1021.34 64.5898,719.516 62.0898,547.016 62.0898,547.016 Z" /><path
         id="path30"
         style="fill:none;stroke:#fab218;stroke-width:10.0010004;stroke-linecap:butt;stroke-linejoin:miter;stroke-miterlimit:3.8636899;stroke-dasharray:none;stroke-opacity:1"
         d="m 1852.09,282.016 c 100.86,114.617 90,195 101.04,249.675 -1.04,5.325 -13.74,474.619 -11.58,479.079 -54.35,-38.676 -94.6,-59.106 -184.39,-155.387 C 1586.12,671.957 1617.48,630.676 1452.44,453.688 1366.03,361.02 1175.38,183.738 1013.33,35.8438 c 96.26,141.1722 238.76,158.6722 348.76,156.1722 417.5,-10 432.06,24.164 490,90 z" /><path
         id="path32"
         style="fill:#fab218;fill-opacity:1;fill-rule:nonzero;stroke:none"
         d="m 371.02,2758.46 c 0,26.1 16.199,37.81 36,37.81 v 23.39 H 225.219 v -23.39 c 19.801,0 36,-11.71 36,-37.81 v -269.1 c 0,-26.09 -16.199,-37.79 -36,-37.79 v -23.41 H 407.02 v 23.41 c -19.801,0 -36,11.7 -36,37.79 v 269.1" /><path
         id="path34"
         style="fill:none;stroke:#1a67bb;stroke-width:10.0010004;stroke-linecap:butt;stroke-linejoin:miter;stroke-miterlimit:3.8636899;stroke-dasharray:none;stroke-opacity:1"
         d="m 371.02,2758.46 c 0,26.1 16.199,37.81 36,37.81 v 23.39 H 225.219 v -23.39 c 19.801,0 36,-11.71 36,-37.81 v -269.1 c 0,-26.09 -16.199,-37.79 -36,-37.79 v -23.41 H 407.02 v 23.41 c -19.801,0 -36,11.7 -36,37.79 z" /><path
         id="path36"
         style="fill:#fab218;fill-opacity:1;fill-rule:nonzero;stroke:none"
         d="m 566.512,2630.66 c 0,26.72 21.656,48.37 48.367,48.37 26.711,0 48.367,-21.65 48.367,-48.37 0,-26.71 -21.656,-48.36 -48.367,-48.36 -26.711,0 -48.367,21.65 -48.367,48.36" /><path
         id="path38"
         style="fill:none;stroke:#1a67bb;stroke-width:10.0010004;stroke-linecap:butt;stroke-linejoin:miter;stroke-miterlimit:3.8636899;stroke-dasharray:none;stroke-opacity:1"
         d="m 566.512,2630.66 c 0,26.72 21.656,48.37 48.367,48.37 26.711,0 48.367,-21.65 48.367,-48.37 0,-26.71 -21.656,-48.36 -48.367,-48.36 -26.711,0 -48.367,21.65 -48.367,48.36 z" /><path
         id="path40"
         style="fill:#fab218;fill-opacity:1;fill-rule:nonzero;stroke:none"
         d="m 773.871,2819.66 v -23.39 c 19.797,0 35.996,-11.71 35.996,-37.81 v -269.1 c 0,-26.09 -16.199,-37.79 -35.996,-37.79 v -23.41 h 181.797 v 23.41 c -19.801,0 -36,11.7 -36,37.79 v 137.07 h 50.277 c 26.102,0 37.805,-16.2 37.805,-36 v -14.39 h 23.4 v 121.23 h -23.4 v -11.43 c 0,-19.8 -11.703,-36 -37.805,-36 h -50.277 v 143.72 c 0,0 59.398,0 92.702,0 33.3,0 72.9,-9.01 72.9,-56.7 v -14.4 h 23.4 v 97.2 H 773.871" /><path
         id="path42"
         style="fill:none;stroke:#1a67bb;stroke-width:10.0010004;stroke-linecap:butt;stroke-linejoin:miter;stroke-miterlimit:3.8636899;stroke-dasharray:none;stroke-opacity:1"
         d="m 773.871,2819.66 v -23.39 c 19.797,0 35.996,-11.71 35.996,-37.81 v -269.1 c 0,-26.09 -16.199,-37.79 -35.996,-37.79 v -23.41 h 181.797 v 23.41 c -19.801,0 -36,11.7 -36,37.79 v 137.07 h 50.277 c 26.102,0 37.805,-16.2 37.805,-36 v -14.39 h 23.4 v 121.23 h -23.4 v -11.43 c 0,-19.8 -11.703,-36 -37.805,-36 h -50.277 v 143.72 c 0,0 59.398,0 92.702,0 33.3,0 72.9,-9.01 72.9,-56.7 v -14.4 h 23.4 v 97.2 z" /><path
         id="path44"
         style="fill:#fab218;fill-opacity:1;fill-rule:nonzero;stroke:none"
         d="m 1193.82,2630.66 c 0,26.72 21.66,48.37 48.37,48.37 26.71,0 48.36,-21.65 48.36,-48.37 0,-26.71 -21.65,-48.36 -48.36,-48.36 -26.71,0 -48.37,21.65 -48.37,48.36" /><path
         id="path46"
         style="fill:none;stroke:#1a67bb;stroke-width:10.0010004;stroke-linecap:butt;stroke-linejoin:miter;stroke-miterlimit:3.8636899;stroke-dasharray:none;stroke-opacity:1"
         d="m 1193.82,2630.66 c 0,26.72 21.66,48.37 48.37,48.37 26.71,0 48.36,-21.65 48.36,-48.37 0,-26.71 -21.65,-48.36 -48.36,-48.36 -26.71,0 -48.37,21.65 -48.37,48.36 z" /><path
         id="path48"
         style="fill:#fab218;fill-opacity:1;fill-rule:nonzero;stroke:none"
         d="m 1793.45,2483.07 -186,194.99 c 26.39,28.8 67.19,79.5 83.39,98.4 16.2,18.9 27,19.81 45.91,19.81 18.89,0 48.59,0 48.59,0 v 25.19 h -120.59 c -40.5,-65.69 -67.5,-98.1 -113.41,-150.3 h -32.39 v 87.3 c 0,26.1 16.19,37.81 36,37.81 v 23.39 h -181.81 v -23.39 c 19.81,0 36,-11.71 36,-37.81 v -269.1 c 0,-26.09 -16.19,-37.79 -36,-37.79 v -23.41 h 181.81 v 23.41 c -19.81,0 -36,11.7 -36,37.79 v 150.3 h 28.8 l 2.32,-0.58 143.45,-149.72 c 25,-26.09 18.48,-37.79 -1.32,-37.79 h -8.3 v -23.41 h 179.89 v 23.41 c -19.8,0 -45.34,5.39 -70.34,31.5" /><path
         id="path50"
         style="fill:none;stroke:#1a67bb;stroke-width:10.0010004;stroke-linecap:butt;stroke-linejoin:miter;stroke-miterlimit:3.8636899;stroke-dasharray:none;stroke-opacity:1"
         d="m 1793.45,2483.07 -186,194.99 c 26.39,28.8 67.19,79.5 83.39,98.4 16.2,18.9 27,19.81 45.91,19.81 18.89,0 48.59,0 48.59,0 v 25.19 h -120.59 c -40.5,-65.69 -67.5,-98.1 -113.41,-150.3 h -32.39 v 87.3 c 0,26.1 16.19,37.81 36,37.81 v 23.39 h -181.81 v -23.39 c 19.81,0 36,-11.71 36,-37.81 v -269.1 c 0,-26.09 -16.19,-37.79 -36,-37.79 v -23.41 h 181.81 v 23.41 c -19.81,0 -36,11.7 -36,37.79 v 150.3 h 28.8 l 2.32,-0.58 143.45,-149.72 c 25,-26.09 18.48,-37.79 -1.32,-37.79 h -8.3 v -23.41 h 179.89 v 23.41 c -19.8,0 -45.34,5.39 -70.34,31.5 z" /><path
         id="path52"
         style="fill:none;stroke:#fab218;stroke-width:50;stroke-linecap:butt;stroke-linejoin:miter;stroke-miterlimit:4;stroke-dasharray:none;stroke-opacity:1"
         d="m 77.6094,2175.35 c -60,33.33 -50,93.33 -50,93.33 v 620 c -3.336,93.34 86.6636,83.34 86.6636,83.34 63.336,0 153.336,30 153.336,30 153.332,80 350,-6.67 350,-6.67 186.664,-93.33 293.332,-20 293.332,-20 33.332,13.33 3.332,70 3.332,70" /><path
         id="path54"
         style="fill:none;stroke:#fab218;stroke-width:50;stroke-linecap:butt;stroke-linejoin:miter;stroke-miterlimit:4;stroke-dasharray:none;stroke-opacity:1"
         d="m 1119.9,3043.05 c 0,0 -30,-56.66 3.33,-70 0,0 106.67,-73.33 293.34,20 0,0 196.66,86.67 350,6.67 0,0 90,-30 153.33,-30 0,0 90,10 86.67,-83.33 v -620 c 0,0 10,-60 -50,-93.34" /><path
         id="path56"
         style="fill:#fab218;fill-opacity:1;fill-rule:nonzero;stroke:none"
         d="m 934.273,2972.02 c 0,0 36.668,10 30,76.66 0,0 -10,50 -70,30 0,0 -46.664,-26.66 -3.332,-66.66 0,0 36.668,0 3.332,-20 l 40,-20" /><path
         id="path58"
         style="fill:#fab218;fill-opacity:1;fill-rule:nonzero;stroke:none"
         d="m 1097.61,2971.6 c 0,0 -36.67,10 -30,76.67 0,0 10,50 70,30 0,0 46.66,-26.67 3.33,-66.67 0,0 -36.67,0 -3.33,-20 l -40,-20" /><path
         id="path60"
         style="fill:#fab218;fill-opacity:1;fill-rule:nonzero;stroke:none"
         d="m 1939.69,1029.52 c 0,0 -11.25,23.75 -25,2.5 0,0 -48.75,2.5 -28.75,38.75 0,0 7.5,35 51.25,16.25 0,0 22.5,2.5 23.75,-53.75 l -21.25,-3.75" /><path
         id="path62"
         style="fill:none;stroke:#fab218;stroke-width:22.67700005;stroke-linecap:butt;stroke-linejoin:miter;stroke-miterlimit:3.8636899;stroke-dasharray:none;stroke-opacity:1"
         d="M 830.422,2247.85 H 1197.09" /><path
         id="path64"
         style="fill:none;stroke:#fab218;stroke-width:22.67700005;stroke-linecap:butt;stroke-linejoin:miter;stroke-miterlimit:3.8636899;stroke-dasharray:none;stroke-opacity:1"
         d="m 150.941,2217.02 c 0,0 5,-70 60,-30 0,0 60,65 -15,90 0,0 -124.9996,25 -119.9996,-70 0,0 0,-60 149.9996,-105 0,0 150,-75 410,75 0,0 70,55 85,65 0,0 55,45 70,5 0,0 -20,30 -50,5 0,0 -50,-65 20,-65 0,0 80,-5 70,90 0,0 -25,110 -115,30 0,0 -95,-105 -245,-150 0,0 -250,-60 -320,60 z" /><path
         id="path66"
         style="fill:none;stroke:#fab218;stroke-width:22.67700005;stroke-linecap:butt;stroke-linejoin:miter;stroke-miterlimit:3.8636899;stroke-dasharray:none;stroke-opacity:1"
         d="m 1880.94,2207.02 c 0,0 -5,-70 -60,-30 0,0 -60,65 15,90 0,0 125,25 120,-70 0,0 0,-60 -150,-105 0,0 -150,-75 -410,75 0,0 -70,55 -85,65 0,0 -55,45 -70,5 0,0 20,30 50,5 0,0 50,-65 -20,-65 0,0 -80,-5 -70,90 0,0 25,110 115,30 0,0 95,-105 245,-150 0,0 250,-60 320,60 z" /><path
         id="path68"
         style="fill:none;stroke:#fab218;stroke-width:22.67700005;stroke-linecap:butt;stroke-linejoin:miter;stroke-miterlimit:3.8636899;stroke-dasharray:none;stroke-opacity:1"
         d="M 823.754,2294.52 H 1207.09" /><path
         id="path70"
         style="fill:none;stroke:#fab218;stroke-width:20;stroke-linecap:butt;stroke-linejoin:miter;stroke-miterlimit:4;stroke-dasharray:none;stroke-opacity:1"
         d="m 75.9414,2207.02 v -580 c 0,0 29.9996,20 54.9996,-15 0,0 40,-60 40,-135 v -355 c 0,0 -5,-90 -60,-115 0,0 -39.9996,-30.004 -44.9996,30 V 562.016 c 0,0 -15,-325 264.9996,-365 h 355 c 0,0 246.149,17.5 329.999,-170.0004 0,0 71.15,162.5004 280,165.0004 h 350 c 0,0 255,-15 305,305 v 535.004 c 0,0 15,-30 -35,-35.004 0,0 -50,-10 -60,95.004 v 395 c 0,0 0,130 100,130 v 580" /><path
         id="path72"
         style="fill:#fab218;fill-opacity:1;fill-rule:nonzero;stroke:none"
         d="m 75.9414,1030.77 c 0,0 11.25,23.75 24.9996,2.5 0,0 48.75,2.5 28.75,38.75 0,0 -7.5,35 -51.2496,16.25 0,0 -22.5,2.5 -23.75,-53.75 l 21.25,-3.75" /><path
         id="path74"
         style="fill:#fab218;fill-opacity:1;fill-rule:evenodd;stroke:none"
         d="m 1052.09,2187.02 c 0,0 24.09,-0.76 40.66,-14.5 16.56,-13.74 35.95,-38.59 57.97,-57.22 22.03,-18.64 23.69,-18.71 41.57,-37.35 17.88,-18.63 45.55,-42.73 69.64,-69.65 24.1,-26.91 53.09,-61.36 73.79,-84.14 20.71,-22.77 40.66,-46.87 61.37,-67.57 20.7,-20.71 57.22,-57.23 57.22,-57.23 l 53.84,53.09 42.73,-46.88 -20.71,-22.77 c 0,0 18.63,-10.35 20.71,-20.71 2.07,-10.35 0,-16.56 0,-16.56 0,0 26.91,5.45 31.05,-8.29 4.15,-13.74 8.29,-36.51 8.29,-36.51 0,0 30.3,-14.5 30.3,-28.99 0,-14.5 -26.16,-42.73 -26.16,-42.73 0,0 15.81,-10.35 9.6,-22.78 -6.21,-12.42 -17.88,-31.05 -26.17,-28.99 -8.28,2.08 -18.63,10.36 -18.63,10.36 0,0 -15.25,-30.31 -35.2,-42.73 -19.95,-12.42 -59.3,-35.2 -59.3,-35.2 l -36.51,-104.1 -16.57,-6.21 -24.85,-51.76 -20.7,12.42 -28.24,-61.36 -14.49,12.42 c 0,0 -33.88,-42.73 -45.55,-63.44 -11.67,-20.7 -40.66,-48.94 -30.31,-100.7 10.35,-51.76 24.1,-69.65 48.94,-100.71 24.85,-31.05 63.44,-74.539 77.93,-102.773 14.49,-28.238 43.48,-104.098 43.48,-104.098 l 22.03,-14.492 c 0,0 35.2,-12.422 49.69,-10.351 14.5,2.07 32.38,19.386 38.59,35.199 6.21,15.812 16.56,34.449 8.28,53.082 -8.28,18.633 -59.29,104.093 -67.58,120.663 -8.28,16.56 -20.7,80 -14.49,94.49 6.21,14.5 31.06,45.55 31.06,45.55 l 28.99,-41.41 c 0,0 -6.21,-15.81 -6.21,-34.45 0,-18.63 7.53,-57.22 19.95,-73.78 12.42,-16.571 37.27,-41.415 37.27,-41.415 0,0 2.07,22.024 -8.28,53.085 -10.36,31.06 -26.92,67.57 -33.13,77.93 -6.21,10.35 -73.79,128.94 -67.58,178.63 6.21,49.7 11.11,89.04 49.7,111.06 38.58,22.03 53.83,34.45 90.35,30.31 36.52,-4.14 95.81,-9.6 112.37,-24.1 16.57,-14.49 46.31,-82.07 47.63,-98.63 1.32,-16.57 -8.28,-22.78 -8.28,-22.78 0,0 4.14,-32.38 2.07,-48.94 -2.07,-16.56 -16.57,-47.62 -16.57,-47.62 0,0 -22.77,12.42 -39.34,26.91 -16.56,14.5 -51.01,32.38 -57.22,51.02 -6.21,18.63 -4.14,88.28 -18.64,98.63 -14.49,10.35 -55.15,22.78 -75.86,2.07 -20.7,-20.7 -42.73,-41.41 -38.58,-77.93 4.14,-36.52 22.02,-78.68 34.44,-106.91 12.43,-28.24 46.87,-114.45 59.3,-135.16 12.42,-20.7 28.98,-90.352 20.7,-139.293 -8.28,-48.942 -18.63,-112.379 -61.36,-131.012 -42.73,-18.637 -88.29,-16.567 -102.78,-16.567 -14.49,0 -44.8,12.426 -44.8,12.426 0,0 -18.63,-33.129 -16.56,-49.695 2.07,-16.563 2.07,-38.59 14.49,-48.941 12.42,-10.352 104.1,-29.739 114.45,-45.551 10.35,-15.813 26.91,-37.274 26.91,-65.508 0,-28.234 -4.14,-57.223 -6.21,-71.715 -2.07,-14.496 2.07,-55.156 2.07,-55.156 l -34.44,14.492 c 0,0 0,-35.949 -10.36,-53.832 -10.35,-17.883 -40.09,-48.941 -57.97,-51.012 -17.88,-2.07 -63.44,8.282 -63.44,8.282 l -42.73,-4.141 -73.79,4.141 22.03,28.238 c 0,0 -24.1,-4.711 -36.52,-1.321 -12.42,3.387 -51.01,15.813 -51.01,15.813 l 36.52,37.27 -6.22,22.777 -2.07,15.812 c 0,0 36.52,22.778 53.09,18.637 16.56,-4.144 65.5,-36.519 80,-36.519 14.49,0 37.27,7.531 39.34,19.953 2.07,12.422 -4.14,61.363 -10.36,71.718 -6.21,10.352 -26.16,24.848 -40.65,24.848 -14.5,0 -115.2,-2.074 -125.56,2.066 -10.35,4.145 -51.01,10.356 -63.43,18.637 -12.43,8.281 -40.66,51.012 -40.66,63.438 0,12.422 -14.5,-14.496 -14.5,-14.496 l -24.84,49.691 -16.57,46.875 c 0,0 2.07,32.375 12.43,48.941 10.35,16.563 44.8,58.727 46.87,72.469 2.07,13.742 -15.81,60.047 -30.31,73.789 -14.49,13.742 -67.58,48.942 -84.14,59.293 -16.565,10.352 -88.28,71.723 -98.636,88.283 -10.351,16.56 -55.152,61.37 -63.433,67.58 -8.285,6.21 -42.731,6.21 -48.942,14.49 -6.211,8.28 -8.281,42.73 -8.281,42.73 l -18.637,14.5 -37.269,22.77 28.988,96.57 26.918,-20.71 48.938,-20.7 18.636,-4.15 30.305,-14.49 49.695,6.21 42.731,-6.21 28.987,16.56 48.94,-8.28 43.48,16.57 44.8,-2.07 24.85,40.66 42.73,-3.39 26.92,19.95 4.14,28.99 c 0,0 -26.92,0 -26.92,14.49 0,14.49 31.81,51.01 51.77,69.65 19.95,18.63 64.18,73.79 80,88.28 15.81,14.49 22.02,59.3 28.23,75.86 6.21,16.56 8.28,26.17 8.28,26.17 l -42.73,39.34 63.44,63.43 -219.29,252.43 -97.47,115.27 -34.45,61.37" /><path
         id="path76"
         style="fill:#fab218;fill-opacity:1;fill-rule:nonzero;stroke:none"
         d="m 994.738,2091.2 c 0,8.16 6.622,14.78 14.792,14.78 8.17,0 14.79,-6.62 14.79,-14.78 0,-8.17 -6.62,-14.79 -14.79,-14.79 -8.17,0 -14.792,6.62 -14.792,14.79" /><path
         id="path78"
         style="fill:none;stroke:#1a67bb;stroke-width:10.0010004;stroke-linecap:butt;stroke-linejoin:miter;stroke-miterlimit:3.8636899;stroke-dasharray:none;stroke-opacity:1"
         d="m 994.738,2091.2 c 0,8.16 6.622,14.78 14.792,14.78 8.17,0 14.79,-6.62 14.79,-14.78 0,-8.17 -6.62,-14.79 -14.79,-14.79 -8.17,0 -14.792,6.62 -14.792,14.79 z" /><path
         id="path80"
         style="fill:#ffffff;fill-opacity:1;fill-rule:nonzero;stroke:none"
         d="m 362.09,1502.02 c -25,-2.5 -40,-2.5 -47.5,-22.5 -7.5,-20 -25,-55 -27.5,-80 -2.5,-25 -7.5,-105 7.5,-132.5 15,-27.5 15,-67.5 45,-105 30,-37.5 60,-100 85,-125 25,-25 95,-100.004 95,-100.004 0,0 105,107.504 120,132.504 15,25 70,110 85,137.5 15,27.5 35,97.5 35,122.5 0,25 5,60 0,82.5 -5,22.5 -25,65 -37.5,72.5 -12.5,7.5 -35,25 -47.5,22.5 -12.5,-2.5 -42.5,0 -45,-15 -2.5,-15 -2.5,-20 -2.5,-20 h -230 c 0,0 5,10 -5,17.5 -10,7.5 -5,15 -30,12.5" /><path
         id="path82"
         style="fill:#fab218;fill-opacity:1;fill-rule:nonzero;stroke:none"
         d="m 963.504,2050.19 c 0,16.15 13.101,29.25 29.258,29.25 16.158,0 29.258,-13.1 29.258,-29.25 0,-16.16 -13.1,-29.26 -29.258,-29.26 -16.157,0 -29.258,13.1 -29.258,29.26" /><path
         id="path84"
         style="fill:none;stroke:#1a67bb;stroke-width:11.33899975;stroke-linecap:butt;stroke-linejoin:miter;stroke-miterlimit:3.8636899;stroke-dasharray:none;stroke-opacity:1"
         d="m 963.504,2050.19 c 0,16.15 13.101,29.25 29.258,29.25 16.158,0 29.258,-13.1 29.258,-29.25 0,-16.16 -13.1,-29.26 -29.258,-29.26 -16.157,0 -29.258,13.1 -29.258,29.26 z" /><path
         id="path86"
         style="fill:#fab218;fill-opacity:1;fill-rule:nonzero;stroke:none"
         d="m 960.113,2091.57 c 0,8.17 6.621,14.79 14.789,14.79 8.168,0 14.789,-6.62 14.789,-14.79 0,-8.16 -6.621,-14.79 -14.789,-14.79 -8.168,0 -14.789,6.63 -14.789,14.79" /><path
         id="path88"
         style="fill:none;stroke:#1a67bb;stroke-width:10.0010004;stroke-linecap:butt;stroke-linejoin:miter;stroke-miterlimit:3.8636899;stroke-dasharray:none;stroke-opacity:1"
         d="m 960.113,2091.57 c 0,8.17 6.621,14.79 14.789,14.79 8.168,0 14.789,-6.62 14.789,-14.79 0,-8.16 -6.621,-14.79 -14.789,-14.79 -8.168,0 -14.789,6.63 -14.789,14.79 z" /><path
         id="path90"
         style="fill:#fab218;fill-opacity:1;fill-rule:nonzero;stroke:none"
         d="m 976.254,2115.23 c 0,8.17 6.621,14.79 14.789,14.79 8.168,0 14.787,-6.62 14.787,-14.79 0,-8.17 -6.619,-14.79 -14.787,-14.79 -8.168,0 -14.789,6.62 -14.789,14.79" /><path
         id="path92"
         style="fill:none;stroke:#1a67bb;stroke-width:10.0010004;stroke-linecap:butt;stroke-linejoin:miter;stroke-miterlimit:3.8636899;stroke-dasharray:none;stroke-opacity:1"
         d="m 976.254,2115.23 c 0,8.17 6.621,14.79 14.789,14.79 8.168,0 14.787,-6.62 14.787,-14.79 0,-8.17 -6.619,-14.79 -14.787,-14.79 -8.168,0 -14.789,6.62 -14.789,14.79 z" /><path
         id="path94"
         style="fill:#fab218;fill-opacity:1;fill-rule:nonzero;stroke:none"
         d="m 995.238,2020.06 c 18.492,3.7 22.192,12.94 22.192,12.94 0,0 78.14,-1.85 98.48,-25.88 20.34,-24.03 31.93,-57.82 31.93,-57.82 l -22.18,-22.18 -22.69,14.79 c 0,0 -1.85,30.08 -22.18,41.18 -20.34,11.09 -65.22,11.09 -65.22,11.09 v -48.57 h -9.24 c 0,0 -5.54,22.18 -14.787,20.33 -9.246,-1.85 -22.188,-16.64 -22.188,-16.64 v 43.03 c 0,0 -44.871,6.05 -61.511,-11.09 -16.637,-17.15 -18.489,-37.48 -18.489,-37.48 l -35.628,-14.79 -12.942,12.94 c 0,0 18.488,55.97 41.176,72.61 22.691,16.63 85.547,18.48 85.547,18.48 0,0 0,-9.24 27.73,-12.94" /><path
         id="path96"
         style="fill:none;stroke:#1a67bb;stroke-width:11.33899975;stroke-linecap:butt;stroke-linejoin:miter;stroke-miterlimit:3.8636899;stroke-dasharray:none;stroke-opacity:1"
         d="m 995.238,2020.06 c 18.492,3.7 22.192,12.94 22.192,12.94 0,0 78.14,-1.85 98.48,-25.88 20.34,-24.03 31.93,-57.82 31.93,-57.82 l -22.18,-22.18 -22.69,14.79 c 0,0 -1.85,30.08 -22.18,41.18 -20.34,11.09 -65.22,11.09 -65.22,11.09 v -48.57 h -9.24 c 0,0 -5.54,22.18 -14.787,20.33 -9.246,-1.85 -22.188,-16.64 -22.188,-16.64 v 43.03 c 0,0 -44.871,6.05 -61.511,-11.09 -16.637,-17.15 -18.489,-37.48 -18.489,-37.48 l -35.628,-14.79 -12.942,12.94 c 0,0 18.488,55.97 41.176,72.61 22.691,16.63 85.547,18.48 85.547,18.48 0,0 0,-9.24 27.73,-12.94 z" /><path
         id="path98"
         style="fill:#fab218;fill-opacity:1;fill-rule:nonzero;stroke:none"
         d="m 1552.31,1144.67 c 9.96,5.7 20.63,6.41 32.01,6.41 11.39,0 43.2,3.14 58.35,-29.17 10.67,-22.77 -1.52,-56.21 -1.52,-95.34 0,-39.136 6.02,-81.789 40.65,-98.195 13.52,-6.398 54.79,-19.207 62.61,-27.746 4.27,9.961 5.7,22.059 0,31.305 l 17.08,-3.559 c -1.42,17.078 -0.71,37 -14.94,49.098 l 12.09,-2.137 c -7.11,46.244 0.95,113.364 -22.76,138.034 -17.79,18.5 -32.02,25.61 -47.67,34.15 -15.66,8.54 -26.22,27.27 -62.52,44.21 -10.67,4.98 -34.96,8.34 -48.48,8.34 -22.76,0 -34.86,-4.17 -46.25,-9.15 l 21.35,-46.25" /><path
         id="path100"
         style="fill:none;stroke:#1a67bb;stroke-width:19.92000008;stroke-linecap:butt;stroke-linejoin:miter;stroke-miterlimit:4;stroke-dasharray:none;stroke-opacity:1"
         d="m 1552.31,1144.67 c 9.96,5.7 20.63,6.41 32.01,6.41 11.39,0 43.2,3.14 58.35,-29.17 10.67,-22.77 -1.52,-56.21 -1.52,-95.34 0,-39.136 6.02,-81.789 40.65,-98.195 13.52,-6.398 54.79,-19.207 62.61,-27.746 4.27,9.961 5.7,22.059 0,31.305 l 17.08,-3.559 c -1.42,17.078 -0.71,37 -14.94,49.098 l 12.09,-2.137 c -7.11,46.244 0.95,113.364 -22.76,138.034 -17.79,18.5 -32.02,25.61 -47.67,34.15 -15.66,8.54 -26.22,27.27 -62.52,44.21 -10.67,4.98 -34.96,8.34 -48.48,8.34 -22.76,0 -34.86,-4.17 -46.25,-9.15 z" /><path
         id="path102"
         style="fill:none;stroke:#1a67bb;stroke-width:19.92000008;stroke-linecap:butt;stroke-linejoin:miter;stroke-miterlimit:4;stroke-dasharray:none;stroke-opacity:1"
         d="m 1520.29,1781.46 c 11.39,-0.71 33.44,-10.67 34.16,-32.73 19.91,2.14 41.97,-20.63 34.85,-47.66 18.5,-0.71 37.58,-20.32 29.89,-43.41 -4.98,-14.94 -13.33,-19.73 -27.56,-29.69 0,0 7.12,-9.25 10.67,-12.81 3.56,-3.55 7.12,-8.53 0.72,-14.94 -6.41,-6.4 -13.9,-11.76 -18.88,-16.74 -4.98,-4.98 -12.81,-4.27 -17.08,0 -4.27,4.27 -93.82,91.88 -93.82,91.88" /><path
         id="path104"
         style="fill:none;stroke:#1a67bb;stroke-width:11.38300037;stroke-linecap:butt;stroke-linejoin:miter;stroke-miterlimit:4;stroke-dasharray:none;stroke-opacity:1"
         d="m 1600.69,1634.18 c -9.25,-3.55 -21.35,-2.84 -29.17,4.98 -7.82,7.83 -9.96,19.22 -7.82,27.04 2.13,7.83 16.36,24.91 22.05,28.46" /><path
         id="path106"
         style="fill:none;stroke:#1a67bb;stroke-width:11.38300037;stroke-linecap:butt;stroke-linejoin:miter;stroke-miterlimit:4;stroke-dasharray:none;stroke-opacity:1"
         d="m 1573.66,1681.86 c -8.55,-6.41 -23.48,-14.23 -35.58,0 -12.1,14.23 -12.68,20.17 -6.4,32.72 4.98,9.97 18.5,29.88 28.46,27.04" /><path
         id="path108"
         style="fill:none;stroke:#1a67bb;stroke-width:11.38300037;stroke-linecap:butt;stroke-linejoin:miter;stroke-miterlimit:4;stroke-dasharray:none;stroke-opacity:1"
         d="m 1547.33,1748.73 c -2.13,-7.11 -2.13,-14.22 -8.54,-22.76 -6.4,-8.54 -15.65,-20.63 -27.04,-12.81 -11.38,7.83 -18.5,20.63 -4.27,54.07" /><path
         id="path110"
         style="fill:#1a67bb;fill-opacity:1;fill-rule:nonzero;stroke:none"
         d="m 1592.15,1622.8 c -12.09,-4.27 -23.48,-5.69 -33.44,-10.67 -3.55,9.96 -7.83,29.17 -3.55,55.5 -13.52,-4.99 -31.31,-12.1 -38.43,-17.79 0.72,21.34 2.14,31.3 6.41,53.36 -9.25,-7.82 -22.06,-18.5 -29.89,-23.48 -4.27,14.94 -5.69,38.42 6.41,56.92" /><path
         id="path112"
         style="fill:none;stroke:#1a67bb;stroke-width:7.11499977;stroke-linecap:butt;stroke-linejoin:miter;stroke-miterlimit:4;stroke-dasharray:none;stroke-opacity:1"
         d="m 1592.15,1622.8 c -12.09,-4.27 -23.48,-5.69 -33.44,-10.67 -3.55,9.96 -7.83,29.17 -3.55,55.5 -13.52,-4.99 -31.31,-12.1 -38.43,-17.79 0.72,21.34 2.14,31.3 6.41,53.36 -9.25,-7.82 -22.06,-18.5 -29.89,-23.48 -4.27,14.94 -5.69,38.42 6.41,56.92" /><path
         id="path114"
         style="fill:none;stroke:#1a67bb;stroke-width:17.0739994;stroke-linecap:round;stroke-linejoin:round;stroke-miterlimit:4;stroke-dasharray:none;stroke-opacity:1"
         d="m 1367.32,1585.09 c 14.94,27.04 14.33,32.59 26.32,71.15 9.97,32.02 22.77,43.4 30.6,53.36 7.82,9.97 19.21,25.62 29.17,24.91 9.96,-0.72 20.64,-6.41 22.77,-14.94 2.13,-8.55 -2.75,-24.1 -2.85,-34.16 -0.09,-10.05 -0.38,-25.27 -2.13,-32.73 -2.85,-12.09 -10.68,-27.03 -18.5,-31.3" /><path
         id="path116"
         style="fill:#1a67bb;fill-opacity:1;fill-rule:nonzero;stroke:none"
         d="m 1477.6,1708.89 c 2.85,22.06 6.41,36.29 13.52,54.79 -20.64,-2.85 -28.46,-12.1 -37.71,-29.17" /><path
         id="path118"
         style="fill:none;stroke:#1a67bb;stroke-width:7.11499977;stroke-linecap:butt;stroke-linejoin:miter;stroke-miterlimit:4;stroke-dasharray:none;stroke-opacity:1"
         d="m 1477.6,1708.89 c 2.85,22.06 6.41,36.29 13.52,54.79 -20.64,-2.85 -28.46,-12.1 -37.71,-29.17" /><path
         id="path120"
         style="fill:#1a67bb;fill-opacity:1;fill-rule:nonzero;stroke:none"
         d="m 1736.84,1245.17 c 0,0 11.07,-26.63 4.02,-52.47 3.55,65.46 -68.66,46.96 -57.63,118.46 5.34,-37.89 53.61,-65.99 53.61,-65.99" /><path
         id="path122"
         style="fill:none;stroke:#1a67bb;stroke-width:0.47499999;stroke-linecap:butt;stroke-linejoin:miter;stroke-miterlimit:4;stroke-dasharray:none;stroke-opacity:1"
         d="m 1736.84,1245.17 c 0,0 11.07,-26.63 4.02,-52.47 3.55,65.46 -68.66,46.96 -57.63,118.46 5.34,-37.89 53.61,-65.99 53.61,-65.99 z" /><path
         id="path124"
         style="fill:#1a67bb;fill-opacity:1;fill-rule:nonzero;stroke:none"
         d="m 1746.4,1296.7 c 0,0 1.73,-17.08 -2.27,-36.19 -2.92,50.3 -55.61,38.03 -46.68,95.95 4.47,-31.64 48.95,-59.76 48.95,-59.76" /><path
         id="path126"
         style="fill:none;stroke:#1a67bb;stroke-width:0.47499999;stroke-linecap:butt;stroke-linejoin:miter;stroke-miterlimit:4;stroke-dasharray:none;stroke-opacity:1"
         d="m 1746.4,1296.7 c 0,0 1.73,-17.08 -2.27,-36.19 -2.92,50.3 -55.61,38.03 -46.68,95.95 4.47,-31.64 48.95,-59.76 48.95,-59.76 z" /><path
         id="path128"
         style="fill:#1a67bb;fill-opacity:1;fill-rule:nonzero;stroke:none"
         d="m 1739,914.473 c -14.64,34.761 -47.95,37.031 -44.39,77.937 7.11,-30.945 53.25,-54.254 53.25,-54.254 0,0 -4.82,-7.996 -3.19,-21.445 l -5.67,-2.238" /><path
         id="path130"
         style="fill:none;stroke:#1a67bb;stroke-width:0.47499999;stroke-linecap:butt;stroke-linejoin:miter;stroke-miterlimit:4;stroke-dasharray:none;stroke-opacity:1"
         d="m 1739,914.473 c -14.64,34.761 -47.95,37.031 -44.39,77.937 7.11,-30.945 53.25,-54.254 53.25,-54.254 0,0 -4.82,-7.996 -3.19,-21.445 z" /><path
         id="path132"
         style="fill:#1a67bb;fill-opacity:1;fill-rule:nonzero;stroke:none"
         d="m 1751.38,981.508 c 0,0 4.57,-25.258 0.58,-44.375 -12.53,54.211 -55.93,44.25 -43.83,122.637 2.84,-42.45 43.25,-78.262 43.25,-78.262" /><path
         id="path134"
         style="fill:none;stroke:#1a67bb;stroke-width:0.47499999;stroke-linecap:butt;stroke-linejoin:miter;stroke-miterlimit:4;stroke-dasharray:none;stroke-opacity:1"
         d="m 1751.38,981.508 c 0,0 4.57,-25.258 0.58,-44.375 -12.53,54.211 -55.93,44.25 -43.83,122.637 2.84,-42.45 43.25,-78.262 43.25,-78.262 z" /><path
         id="path136"
         style="fill:#1a67bb;fill-opacity:1;fill-rule:nonzero;stroke:none"
         d="m 1536.66,460.566 c -2.85,42.692 -39.14,30.594 -37.36,73.641 6.05,-11.387 16.72,-28.816 39.84,-32.016 l -2.48,-41.625" /><path
         id="path138"
         style="fill:none;stroke:#1a67bb;stroke-width:0.47499999;stroke-linecap:butt;stroke-linejoin:miter;stroke-miterlimit:4;stroke-dasharray:none;stroke-opacity:1"
         d="m 1536.66,460.566 c -2.85,42.692 -39.14,30.594 -37.36,73.641 6.05,-11.387 16.72,-28.816 39.84,-32.016 z" /><path
         id="path140"
         style="fill:#1a67bb;fill-opacity:1;fill-rule:nonzero;stroke:none"
         d="m 1532.74,441 c -24.54,16.363 -36.24,33.008 -46.24,56.211 3.91,-25.262 11.02,-76.133 9.96,-98.547 l 6.04,54.793 30.24,-12.457" /><path
         id="path142"
         style="fill:none;stroke:#1a67bb;stroke-width:0.47499999;stroke-linecap:butt;stroke-linejoin:miter;stroke-miterlimit:4;stroke-dasharray:none;stroke-opacity:1"
         d="m 1532.74,441 c -24.54,16.363 -36.24,33.008 -46.24,56.211 3.91,-25.262 11.02,-76.133 9.96,-98.547 l 6.04,54.793 z" /><path
         id="path144"
         style="fill:#1a67bb;fill-opacity:1;fill-rule:nonzero;stroke:none"
         d="m 1340.28,342.457 c 23.13,10.32 41.27,46.246 86.81,39.488 -14.23,-6.757 -30.95,-27.75 -31.31,-33.082 -0.36,-5.34 -1.07,0.711 -1.07,0.711 l -13.87,8.895 -40.56,-16.012" /><path
         id="path146"
         style="fill:none;stroke:#1a67bb;stroke-width:0.47499999;stroke-linecap:butt;stroke-linejoin:miter;stroke-miterlimit:4;stroke-dasharray:none;stroke-opacity:1"
         d="m 1340.28,342.457 c 23.13,10.32 41.27,46.246 86.81,39.488 -14.23,-6.757 -30.95,-27.75 -31.31,-33.082 -0.36,-5.34 -1.07,0.711 -1.07,0.711 l -13.87,8.895 z" /><path
         id="path148"
         style="fill:#1a67bb;fill-opacity:1;fill-rule:nonzero;stroke:none"
         d="m 1395.07,357.758 c 3.56,-10.32 16.36,-22.059 27.39,-24.192 -27.75,-2.492 -51.23,-10.316 -60.12,-21.347 3.2,17.429 8.54,35.929 32.73,45.539" /><path
         id="path150"
         style="fill:none;stroke:#1a67bb;stroke-width:7.11499977;stroke-linecap:butt;stroke-linejoin:miter;stroke-miterlimit:4;stroke-dasharray:none;stroke-opacity:1"
         d="m 1395.07,357.758 c 3.56,-10.32 16.36,-22.059 27.39,-24.192 -27.75,-2.492 -51.23,-10.316 -60.12,-21.347 3.2,17.429 8.54,35.929 32.73,45.539 z" /><path
         id="path152"
         style="fill:#1a67bb;fill-opacity:1;fill-rule:nonzero;stroke:none"
         d="m 1543.42,517.488 c -14.59,32.371 -45.54,39.844 -46.96,61.539 9.25,-12.445 39.13,-21.339 48.02,-25.964 -0.71,1.066 -1.06,-35.575 -1.06,-35.575" /><path
         id="path154"
         style="fill:none;stroke:#1a67bb;stroke-width:0.47499999;stroke-linecap:butt;stroke-linejoin:miter;stroke-miterlimit:4;stroke-dasharray:none;stroke-opacity:1"
         d="m 1543.42,517.488 c -14.59,32.371 -45.54,39.844 -46.96,61.539 9.25,-12.445 39.13,-21.339 48.02,-25.964 -0.71,1.066 -1.06,-35.575 -1.06,-35.575 z" /><path
         id="path156"
         style="fill:#fab218;fill-opacity:1;fill-rule:nonzero;stroke:none"
         d="m 1121.27,1858.09 c 16.76,16.54 35.14,4.42 63.19,-0.5 5.7,-39.84 -39.12,-81.11 -57.63,-84.66 20.63,1.42 34.87,-3.56 53.37,-13.52 30.61,-16.49 44.1,-55.5 30.59,-88.94 14.94,-17.08 9.96,-48.38 1.42,-65.46 22.77,-27.74 12.81,-54.07 2.85,-69.01 7.82,-12.1 11.38,-50.52 3.56,-71.86 4.26,-12.81 0.71,-47.68 -2.85,-63.33 -3.56,-15.65 14.23,-24.9 28.46,-18.5 -1.66,-36.01 -14.97,-49.59 -45.98,-50.14 -8.81,-0.15 -19.05,0.74 -30.86,2.47 -7.12,-54.07 -58.34,-39.84 -69.73,-34.86 -22.05,-23.48 -69.73,-22.06 -88.23,-12.09 -19.203,-23.49 -56.914,-15.66 -72.567,-4.27 -28.461,-25.62 -78.976,-7.83 -91.074,9.25 -35.574,-19.93 -87.512,23.47 -87.512,80.4 0,56.91 22.766,77.55 41.977,99.61 14.394,16.52 15.652,32.01 12.094,51.93 -9.957,7.83 -7.825,12.1 -7.825,19.21 0,7.12 0,49.81 0,49.81 -13.519,-2.84 -24.902,-4.27 -34.863,-4.27 -25.613,0 -59.055,22.73 -59.055,46.96 0,15.29 13.875,29.88 19.211,32.73 5.336,2.84 16.008,1.07 14.942,-9.61 -1.067,-10.67 5.336,-26.68 26.68,-26.68 21.347,0 80.851,17.24 101.488,28.63 -16.367,-4.98 -56.305,-0.17 -70.535,5.62 -17.797,7.24 -69.727,21.25 -54.789,86.7 -11.383,9.26 -16.364,23.15 -14.227,37.38 0,0 67.402,16.7 70.957,18.12 3.559,1.43 13.52,9.25 17.789,13.52 4.27,4.27 37.152,29.93 37.152,29.93 h 245.547 11.09 l 5.36,5.43" /><path
         id="path158"
         style="fill:none;stroke:#1a67bb;stroke-width:19.92000008;stroke-linecap:butt;stroke-linejoin:miter;stroke-miterlimit:4;stroke-dasharray:none;stroke-opacity:1"
         d="m 1121.27,1858.09 c 16.76,16.54 35.14,4.42 63.19,-0.5 5.7,-39.84 -39.12,-81.11 -57.63,-84.66 20.63,1.42 34.87,-3.56 53.37,-13.52 30.61,-16.49 44.1,-55.5 30.59,-88.94 14.94,-17.08 9.96,-48.38 1.42,-65.46 22.77,-27.74 12.81,-54.07 2.85,-69.01 7.82,-12.1 11.38,-50.52 3.56,-71.86 4.26,-12.81 0.71,-47.68 -2.85,-63.33 -3.56,-15.65 14.23,-24.9 28.46,-18.5 -1.66,-36.01 -14.97,-49.59 -45.98,-50.14 -8.81,-0.15 -19.05,0.74 -30.86,2.47 -7.12,-54.07 -58.34,-39.84 -69.73,-34.86 -22.05,-23.48 -69.73,-22.06 -88.23,-12.09 -19.203,-23.49 -56.914,-15.66 -72.567,-4.27 -28.461,-25.62 -78.976,-7.83 -91.074,9.25 -35.574,-19.93 -87.512,23.47 -87.512,80.4 0,56.91 22.766,77.55 41.977,99.61 14.394,16.52 15.652,32.01 12.094,51.93 -9.957,7.83 -7.825,12.1 -7.825,19.21 0,7.12 0,49.81 0,49.81 -13.519,-2.84 -24.902,-4.27 -34.863,-4.27 -25.613,0 -59.055,22.73 -59.055,46.96 0,15.29 13.875,29.88 19.211,32.73 5.336,2.84 16.008,1.07 14.942,-9.61 -1.067,-10.67 5.336,-26.68 26.68,-26.68 21.347,0 80.851,17.24 101.488,28.63 -16.367,-4.98 -56.305,-0.17 -70.535,5.62 -17.797,7.24 -69.727,21.25 -54.789,86.7 -11.383,9.26 -16.364,23.15 -14.227,37.38 0,0 67.402,16.7 70.957,18.12 3.559,1.43 13.52,9.25 17.789,13.52 4.27,4.27 37.152,29.93 37.152,29.93 h 245.547 11.09 z" /><path
         id="path160"
         style="fill:#fab218;fill-opacity:1;fill-rule:nonzero;stroke:none"
         d="m 481.289,1272.55 23.477,100.33 c -9.34,-1.43 -22.864,-9.97 -25,-23.06 -6.395,5.34 -11.286,8.82 -17.688,9.18 -1.555,-18.68 4.774,-28.2 15.746,-27.64 0,-15.65 -11.937,-26.79 -26.523,-26.79 -14.586,0 -22.946,12.1 -22.946,27.75 13.872,-3.91 21.961,5.34 20.184,26.68 -6.406,-0.36 -12.715,-1 -19.109,-6.33 5.359,13.87 -3.336,21.27 -10.68,24.12 -7.344,-2.85 -16.043,-10.25 -10.68,-24.12 -6.398,5.33 -12.707,5.97 -19.109,6.33 -1.777,-21.34 6.309,-30.59 20.184,-26.68 0,-15.65 -8.36,-27.75 -22.95,-27.75 -14.586,0 -26.523,11.14 -26.523,26.79 10.973,-0.56 17.305,8.96 15.746,27.64 -6.402,-0.36 -11.289,-3.84 -17.688,-9.18 -2.14,13.09 -15.656,21.63 -25,23.06 l 23.477,-100.33 h 125.082" /><path
         id="path162"
         style="fill:none;stroke:#1a67bb;stroke-width:8.53999996;stroke-linecap:butt;stroke-linejoin:miter;stroke-miterlimit:4;stroke-dasharray:none;stroke-opacity:1"
         d="m 481.289,1272.55 23.477,100.33 c -9.34,-1.43 -22.864,-9.97 -25,-23.06 -6.395,5.34 -11.286,8.82 -17.688,9.18 -1.555,-18.68 4.774,-28.2 15.746,-27.64 0,-15.65 -11.937,-26.79 -26.523,-26.79 -14.586,0 -22.946,12.1 -22.946,27.75 13.872,-3.91 21.961,5.34 20.184,26.68 -6.406,-0.36 -12.715,-1 -19.109,-6.33 5.359,13.87 -3.336,21.27 -10.68,24.12 -7.344,-2.85 -16.043,-10.25 -10.68,-24.12 -6.398,5.33 -12.707,5.97 -19.109,6.33 -1.777,-21.34 6.309,-30.59 20.184,-26.68 0,-15.65 -8.36,-27.75 -22.95,-27.75 -14.586,0 -26.523,11.14 -26.523,26.79 10.973,-0.56 17.305,8.96 15.746,27.64 -6.402,-0.36 -11.289,-3.84 -17.688,-9.18 -2.14,13.09 -15.656,21.63 -25,23.06 l 23.477,-100.33 z" /><path
         id="path164"
         style="fill:#fab218;fill-opacity:1;fill-rule:nonzero;stroke:none"
         d="m 556.063,1272.55 -23.481,100.33 c 9.34,-1.43 22.863,-9.97 25.004,-23.06 6.398,5.34 11.285,8.82 17.684,9.18 1.558,-18.68 -4.774,-28.2 -15.747,-27.64 0,-15.65 11.946,-26.79 26.528,-26.79 14.586,0 22.945,12.1 22.945,27.75 -13.875,-3.91 -21.961,5.34 -20.183,26.68 6.406,-0.36 12.71,-1 19.109,-6.33 -5.363,13.87 3.336,21.27 10.68,24.12 7.339,-2.85 16.043,-10.25 10.679,-24.12 6.395,5.33 12.703,5.97 19.11,6.33 1.777,-21.34 -6.309,-30.59 -20.184,-26.68 0,-15.65 8.359,-27.75 22.945,-27.75 14.586,0 26.524,11.14 26.524,26.79 -10.969,-0.56 -17.301,8.96 -15.746,27.64 6.406,-0.36 11.293,-3.84 17.687,-9.18 2.145,13.09 15.66,21.63 25.004,23.06 l -23.48,-100.33 H 556.063" /><path
         id="path166"
         style="fill:none;stroke:#1a67bb;stroke-width:8.53999996;stroke-linecap:butt;stroke-linejoin:miter;stroke-miterlimit:4;stroke-dasharray:none;stroke-opacity:1"
         d="m 556.063,1272.55 -23.481,100.33 c 9.34,-1.43 22.863,-9.97 25.004,-23.06 6.398,5.34 11.285,8.82 17.684,9.18 1.558,-18.68 -4.774,-28.2 -15.747,-27.64 0,-15.65 11.946,-26.79 26.528,-26.79 14.586,0 22.945,12.1 22.945,27.75 -13.875,-3.91 -21.961,5.34 -20.183,26.68 6.406,-0.36 12.71,-1 19.109,-6.33 -5.363,13.87 3.336,21.27 10.68,24.12 7.339,-2.85 16.043,-10.25 10.679,-24.12 6.395,5.33 12.703,5.97 19.11,6.33 1.777,-21.34 -6.309,-30.59 -20.184,-26.68 0,-15.65 8.359,-27.75 22.945,-27.75 14.586,0 26.524,11.14 26.524,26.79 -10.969,-0.56 -17.301,8.96 -15.746,27.64 6.406,-0.36 11.293,-3.84 17.687,-9.18 2.145,13.09 15.66,21.63 25.004,23.06 l -23.48,-100.33 z" /><path
         id="path168"
         style="fill:#fab218;fill-opacity:1;fill-rule:nonzero;stroke:none"
         d="m 456.492,1124 -23.48,100.32 c 9.347,-1.43 22.859,-9.96 25.004,-23.05 6.394,5.33 11.285,8.81 17.683,9.17 1.559,-18.67 -4.773,-28.2 -15.742,-27.64 0,-15.65 11.938,-26.79 26.523,-26.79 14.586,0 22.946,12.1 22.946,27.75 -13.875,-3.91 -21.961,5.33 -20.184,26.68 6.403,-0.36 12.715,-0.99 19.113,-6.33 -5.367,13.87 3.336,21.27 10.676,24.12 7.34,-2.85 16.043,-10.25 10.68,-24.12 6.394,5.34 12.703,5.97 19.109,6.33 1.778,-21.35 -6.312,-30.59 -20.183,-26.68 0,-15.65 8.359,-27.75 22.945,-27.75 14.586,0 26.527,11.14 26.527,26.79 -10.972,-0.56 -17.304,8.97 -15.746,27.64 6.403,-0.36 11.285,-3.84 17.68,-9.17 2.145,13.09 15.664,21.62 25.008,23.05 L 581.57,1124 H 456.492" /><path
         id="path170"
         style="fill:none;stroke:#1a67bb;stroke-width:8.53999996;stroke-linecap:butt;stroke-linejoin:miter;stroke-miterlimit:4;stroke-dasharray:none;stroke-opacity:1"
         d="m 456.492,1124 -23.48,100.32 c 9.347,-1.43 22.859,-9.96 25.004,-23.05 6.394,5.33 11.285,8.81 17.683,9.17 1.559,-18.67 -4.773,-28.2 -15.742,-27.64 0,-15.65 11.938,-26.79 26.523,-26.79 14.586,0 22.946,12.1 22.946,27.75 -13.875,-3.91 -21.961,5.33 -20.184,26.68 6.403,-0.36 12.715,-0.99 19.113,-6.33 -5.367,13.87 3.336,21.27 10.676,24.12 7.34,-2.85 16.043,-10.25 10.68,-24.12 6.394,5.34 12.703,5.97 19.109,6.33 1.778,-21.35 -6.312,-30.59 -20.183,-26.68 0,-15.65 8.359,-27.75 22.945,-27.75 14.586,0 26.527,11.14 26.527,26.79 -10.972,-0.56 -17.304,8.97 -15.746,27.64 6.403,-0.36 11.285,-3.84 17.68,-9.17 2.145,13.09 15.664,21.62 25.008,23.05 L 581.57,1124 Z" /><path
         id="path172"
         style="fill:none;stroke:#1a67bb;stroke-width:19.92000008;stroke-linecap:butt;stroke-linejoin:miter;stroke-miterlimit:4;stroke-dasharray:none;stroke-opacity:1"
         d="m 1220.04,1423.58 c 66.88,49.8 106.72,111.71 139.45,143.01 9.8,27.14 12.01,58.67 22.96,82.53 l -46.47,49.99 c 42.08,30.75 57.67,44.27 70.29,55.07 -283.68,335.75 -324.18,370.34 -364.18,455.34 -0.68,2.01 -0.02,-0.12 1.92,-0.98 66.88,-31.67 115.21,-90.14 411.17,-413.31 11.94,11.55 34.48,36.12 51.22,58.83 l 46.05,-51.36 c 0,0 -20.09,-16.91 -32.58,-24.86 -12.5,-7.94 -23.77,-22.7 -25.91,-36.22" /><path
         id="path174"
         style="fill:none;stroke:#1a67bb;stroke-width:11.38300037;stroke-linecap:round;stroke-linejoin:round;stroke-miterlimit:4;stroke-dasharray:none;stroke-opacity:1"
         d="M 998.051,1770.79 C 980.977,1760.12 956.074,1753 941.844,1753 c -14.231,0 -45.395,-0.35 -45.395,28.46" /><path
         id="path176"
         style="fill:none;stroke:#1a67bb;stroke-width:19.84300041;stroke-linecap:butt;stroke-linejoin:miter;stroke-miterlimit:3.8636899;stroke-dasharray:none;stroke-opacity:1"
         d="m 1218.6,1303.76 c 7.4,-18.49 1.85,-35.63 -5.55,-55.97 -7.39,-20.33 -16.64,-25.88 -3.69,-44.37 12.94,-18.49 20.84,-26.38 3.69,-37.48 -17.14,-11.09 -39.32,-14.79 -46.72,-11.09 -7.39,3.7 -18.49,-29.58 -36.97,-36.97 -15.92,-6.37 -37.56,10.69 -46.73,0 -11.09,-12.95 -18.49,-20.34 -36.97,-20.34 -11.84,0 -22.69,9.24 -39.33,5.55 -16.639,-3.7 -20.334,-7.9 -42.517,-7.9 -27.403,0 -26.387,2.35 -43.028,7.9 -12.402,4.13 -29.578,36.97 -31.43,44.37 -1.847,7.39 -57.308,-18.49 -76.3,-3.7 -18.992,14.79 -33.782,14.79 -33.782,37.48 0,15.68 15.293,18.48 22.688,29.58 7.394,11.09 -11.598,46.72 -15.293,63.36 -3.695,16.64 -1.848,31.43 -1.848,31.43 l 50.418,-11.09 c 0,0 46.723,-29.59 61.512,-25.89 14.793,3.7 38.824,12.94 38.824,12.94 0,0 24.539,-12.94 39.328,-9.24 14.789,3.7 33.278,16.64 33.278,16.64 0,0 39.33,-12.94 54.12,-7.4 14.79,5.55 36.97,14.79 36.97,14.79 0,0 31.94,-9.24 43.03,0 11.09,9.25 25.88,36.98 25.88,36.98 h 43.03 c 0,0 0,-11.09 7.39,-29.58 z" /><path
         id="path178"
         style="fill:#1a67bb;fill-opacity:1;fill-rule:nonzero;stroke:none"
         d="m 897.73,1616.39 c 0,0 36.364,5.54 69.606,-26.51 0,0 -42.742,-45.12 -72.422,26.12" /><path
         id="path180"
         style="fill:#fab218;fill-opacity:1;fill-rule:nonzero;stroke:none"
         d="m 1089.51,925.574 28.24,-53.836 4.14,-24.093 -52.69,-75.086 C 931.172,766.867 867.137,716.348 867.137,646.625 c 0,-19.926 24.187,-33.441 46.246,-48.383 22.058,-14.941 27.75,-54.078 29.172,-76.129 l -9.961,4.266 c 12.097,-10.672 20.633,-44.824 19.922,-64.746 -4.27,2.847 -15.653,2.137 -24.192,4.269 9.965,-19.922 13.52,-49.804 5.692,-85.379 -17.789,4.27 -33.082,13.161 -46.602,24.547 -0.355,-39.132 -20.277,-60.121 -49.449,-60.121 -29.176,0 -153.684,-7.824 -153.684,-7.824 -0.633,8.215 1.543,22.043 4.528,31.512 l -2.11,1.539 c -11.789,-5.793 -30.402,-8.153 -47.246,-8.153 -25.609,0 -51.937,22.059 -66.168,34.153 4.981,9.25 19.57,18.855 32.731,21.703 -11.028,4.976 -24.192,14.582 -34.153,33.082 7.825,12.809 27.75,24.187 43.403,24.187 15.652,0 34.863,-12.8 46.246,-14.937 -17.785,12.809 -29.168,36.285 -32.016,48.379 8.535,6.406 26.324,7.828 42.688,7.828 50.519,0 66.882,-36.289 72.574,-45.535 5.695,-9.25 17.789,-13.52 32.015,-13.52 26.329,0 35.575,19.926 32.731,64.75 -1.129,17.766 -9.961,36.996 -17.789,42.688 -19.797,14.398 -64.742,40.554 -90.36,80.398 -2.132,-5.691 -7.113,-13.515 -6.402,-24.187 -36.285,21.34 -51.941,64.031 -42.687,116.687 l -25.618,-4.98 c 2.848,146.566 142.301,186.41 200.641,192.101 58.344,5.692 143.918,16.418 206.771,42.297 l 55.45,-41.543" /><path
         id="path182"
         style="fill:none;stroke:#1a67bb;stroke-width:19.92000008;stroke-linecap:butt;stroke-linejoin:miter;stroke-miterlimit:4;stroke-dasharray:none;stroke-opacity:1"
         d="m 1089.51,925.574 28.24,-53.836 4.14,-24.093 -52.69,-75.086 C 931.172,766.867 867.137,716.348 867.137,646.625 c 0,-19.926 24.187,-33.441 46.246,-48.383 22.058,-14.941 27.75,-54.078 29.172,-76.129 l -9.961,4.266 c 12.097,-10.672 20.633,-44.824 19.922,-64.746 -4.27,2.847 -15.653,2.137 -24.192,4.269 9.965,-19.922 13.52,-49.804 5.692,-85.379 -17.789,4.27 -33.082,13.161 -46.602,24.547 -0.355,-39.132 -20.277,-60.121 -49.449,-60.121 -29.176,0 -153.684,-7.824 -153.684,-7.824 -0.633,8.215 1.543,22.043 4.528,31.512 l -2.11,1.539 c -11.789,-5.793 -30.402,-8.153 -47.246,-8.153 -25.609,0 -51.937,22.059 -66.168,34.153 4.981,9.25 19.57,18.855 32.731,21.703 -11.028,4.976 -24.192,14.582 -34.153,33.082 7.825,12.809 27.75,24.187 43.403,24.187 15.652,0 34.863,-12.8 46.246,-14.937 -17.785,12.809 -29.168,36.285 -32.016,48.379 8.535,6.406 26.324,7.828 42.688,7.828 50.519,0 66.882,-36.289 72.574,-45.535 5.695,-9.25 17.789,-13.52 32.015,-13.52 26.329,0 35.575,19.926 32.731,64.75 -1.129,17.766 -9.961,36.996 -17.789,42.688 -19.797,14.398 -64.742,40.554 -90.36,80.398 -2.132,-5.691 -7.113,-13.515 -6.402,-24.187 -36.285,21.34 -51.941,64.031 -42.687,116.687 l -25.618,-4.98 c 2.848,146.566 142.301,186.41 200.641,192.101 58.344,5.692 143.918,16.418 206.771,42.297 z" /><path
         id="path184"
         style="fill:none;stroke:#1a67bb;stroke-width:11.38300037;stroke-linecap:round;stroke-linejoin:round;stroke-miterlimit:4;stroke-dasharray:none;stroke-opacity:1"
         d="m 1141.06,1782.89 c -28.03,-11.81 -60.47,0.71 -62.61,7.11 -23.48,-12.09 -44.11,-14.94 -67.59,-14.94 -23.481,0 -62.614,12.81 -78.266,33.44 -21.344,-4.27 -54.778,-5.33 -70.434,-5.33 l 33.438,-10.74" /><path
         id="path186"
         style="fill:#1a67bb;fill-opacity:1;fill-rule:nonzero;stroke:none"
         d="m 896.449,1781.46 c 0,12.23 6.309,22.14 14.086,22.14 7.781,0 14.086,-9.91 14.086,-22.14 0,-12.22 -6.305,-22.14 -14.086,-22.14 -7.777,0 -14.086,9.92 -14.086,22.14" /><path
         id="path188"
         style="fill:none;stroke:#1a67bb;stroke-width:11.38300037;stroke-linecap:round;stroke-linejoin:round;stroke-miterlimit:4;stroke-dasharray:none;stroke-opacity:1"
         d="m 896.449,1781.46 c 0,12.23 6.309,22.14 14.086,22.14 7.781,0 14.086,-9.91 14.086,-22.14 0,-12.22 -6.305,-22.14 -14.086,-22.14 -7.777,0 -14.086,9.92 -14.086,22.14 z" /><path
         id="path190"
         style="fill:none;stroke:#1a67bb;stroke-width:14.22700024;stroke-linecap:butt;stroke-linejoin:miter;stroke-miterlimit:4;stroke-dasharray:none;stroke-opacity:1"
         d="m 1216.48,1465.56 c -16.36,27.04 -33.44,44.82 -70.44,44.82 -36.99,0 -73.28,31.31 -67.59,106.73 l 7.82,-3.56 c -11.38,22.06 -7.82,52.65 0,64.03 -14.93,16.37 -13.51,44.12 -3.55,64.75 -7.11,14.94 -10.67,32.73 -4.27,47.67 35.58,-33.44 62.61,-17.07 94.63,-31.3" /><path
         id="path192"
         style="fill:none;stroke:#1a67bb;stroke-width:14.22700024;stroke-linecap:butt;stroke-linejoin:miter;stroke-miterlimit:4;stroke-dasharray:none;stroke-opacity:1"
         d="m 808.789,1592.21 20.637,4.27 c 4.269,8.53 4.98,8.71 12.094,13.69 l 2.765,0.57 c 2.098,-5.33 6.844,-12.31 12.18,-17.11 h 17.785 c 3.559,8.53 12.094,19.92 23.48,22.76 -0.714,-28.45 30.594,-42.69 37.711,-42.69 7.114,0 38.414,9.26 40.551,18.51 2.141,9.25 0,45.53 -9.246,54.78 -9.25,9.25 -46.961,30.59 -54.07,30.59 -7.121,0 -33.442,-11.38 -52.656,-19.92" /><path
         id="path194"
         style="fill:none;stroke:#1a67bb;stroke-width:14.22700024;stroke-linecap:butt;stroke-linejoin:miter;stroke-miterlimit:4;stroke-dasharray:none;stroke-opacity:1"
         d="m 905.555,1619.24 c 14.23,0 32.019,-8.53 62.613,-32.01 l 7.117,7.82 -2.847,29.17 c -15.09,19.58 -37.618,25.62 -63.977,29.7 -10.375,1.61 -49.512,-1.24 -79.746,-11.2" /><path
         id="path196"
         style="fill:#fab218;fill-opacity:1;fill-rule:nonzero;stroke:none"
         d="m 862.867,1860.93 c -17.789,-0.13 -33.441,45.2 -43.406,57.29 -5.441,6.62 -19.207,13.88 -29.523,10.32 3.914,13.16 16.007,22.77 26.316,22.77 8.879,0 15.082,-2.12 20.484,-6.47 5.211,-4.2 9.676,-10.46 15.082,-18.91 14.606,23.6 44.477,19.33 52.918,10.96 -2.386,-21.87 -15.547,-27.56 -36.883,-25.97 2.829,-13.33 27.653,-17.79 46.59,-17.79 18.938,0 43.051,7.31 45.875,20.64 -18.015,-3.92 -33.422,5.87 -36.168,23.12 8.442,8.37 32.278,15.84 49.36,1.13 -6.965,13.88 -0.719,25.03 14.933,28.94 15.655,-3.91 21.905,-15.06 14.935,-28.94 17.08,14.71 40.92,7.24 49.36,-1.13 -2.75,-17.25 -18.16,-27.04 -36.17,-23.12 2.83,-13.33 26.94,-20.64 45.88,-20.64 18.94,0 43.76,4.46 46.59,17.79 -21.34,-1.59 -34.5,4.1 -36.89,25.97 8.44,8.37 38.32,12.64 52.92,-10.96 11.01,17.2 18.13,25.38 35.57,25.38 10.31,0 22.4,-9.61 26.32,-22.77 -10.32,3.56 -24.09,-3.7 -29.53,-10.32 -9.97,-12.09 -30.32,-57.42 -48.11,-57.29 H 862.867" /><path
         id="path198"
         style="fill:none;stroke:#1a67bb;stroke-width:11.38300037;stroke-linecap:butt;stroke-linejoin:miter;stroke-miterlimit:4;stroke-dasharray:none;stroke-opacity:1"
         d="m 862.867,1860.93 c -17.789,-0.13 -33.441,45.2 -43.406,57.29 -5.441,6.62 -19.207,13.88 -29.523,10.32 3.914,13.16 16.007,22.77 26.316,22.77 8.879,0 15.082,-2.12 20.484,-6.47 5.211,-4.2 9.676,-10.46 15.082,-18.91 14.606,23.6 44.477,19.33 52.918,10.96 -2.386,-21.87 -15.547,-27.56 -36.883,-25.97 2.829,-13.33 27.653,-17.79 46.59,-17.79 18.938,0 43.051,7.31 45.875,20.64 -18.015,-3.92 -33.422,5.87 -36.168,23.12 8.442,8.37 32.278,15.84 49.36,1.13 -6.965,13.88 -0.719,25.03 14.933,28.94 15.655,-3.91 21.905,-15.06 14.935,-28.94 17.08,14.71 40.92,7.24 49.36,-1.13 -2.75,-17.25 -18.16,-27.04 -36.17,-23.12 2.83,-13.33 26.94,-20.64 45.88,-20.64 18.94,0 43.76,4.46 46.59,17.79 -21.34,-1.59 -34.5,4.1 -36.89,25.97 8.44,8.37 38.32,12.64 52.92,-10.96 11.01,17.2 18.13,25.38 35.57,25.38 10.31,0 22.4,-9.61 26.32,-22.77 -10.32,3.56 -24.09,-3.7 -29.53,-10.32 -9.97,-12.09 -30.32,-57.42 -48.11,-57.29 z" /><path
         id="path200"
         style="fill:#1a67bb;fill-opacity:1;fill-rule:nonzero;stroke:none"
         d="m 1001.25,1536.35 c -14.227,-17.07 -50.16,-35.57 -90,8.19 11.027,-54.43 75.773,-64.39 90,-8.19" /><path
         id="path202"
         style="fill:none;stroke:#1a67bb;stroke-width:0.47499999;stroke-linecap:butt;stroke-linejoin:miter;stroke-miterlimit:4;stroke-dasharray:none;stroke-opacity:1"
         d="m 1001.25,1536.35 c -14.227,-17.07 -50.16,-35.57 -90,8.19 11.027,-54.43 75.773,-64.39 90,-8.19 z" /><path
         id="path204"
         style="fill:#1a67bb;fill-opacity:1;fill-rule:nonzero;stroke:none"
         d="m 927.141,1523.59 c -19.825,-8.98 -50.551,-8.82 -79.93,23.44 8.398,-41.44 63.984,-63.49 88.016,-30.17 l -8.086,6.73" /><path
         id="path206"
         style="fill:none;stroke:#1a67bb;stroke-width:0.47499999;stroke-linecap:butt;stroke-linejoin:miter;stroke-miterlimit:4;stroke-dasharray:none;stroke-opacity:1"
         d="m 927.141,1523.59 c -19.825,-8.98 -50.551,-8.82 -79.93,23.44 8.398,-41.44 63.984,-63.49 88.016,-30.17 z" /><path
         id="path208"
         style="fill:#1a67bb;fill-opacity:1;fill-rule:nonzero;stroke:none"
         d="m 814.914,1516.29 c 19.672,-14.38 47.129,-15.51 62.32,5.55 l -8.082,6.73 c -16.984,-7.7 -36.703,-10.71 -62.789,14.23 0,-10.89 2.785,-13.92 5.633,-16.59 2.848,-2.66 2.453,-6.33 2.918,-9.92" /><path
         id="path210"
         style="fill:none;stroke:#1a67bb;stroke-width:0.47499999;stroke-linecap:butt;stroke-linejoin:miter;stroke-miterlimit:4;stroke-dasharray:none;stroke-opacity:1"
         d="m 814.914,1516.29 c 19.672,-14.38 47.129,-15.51 62.32,5.55 l -8.082,6.73 c -16.984,-7.7 -36.703,-10.71 -62.789,14.23 0,-10.89 2.785,-13.92 5.633,-16.59 2.848,-2.66 2.453,-6.33 2.918,-9.92 z" /><path
         id="path212"
         style="fill:#1a67bb;fill-opacity:1;fill-rule:nonzero;stroke:none"
         d="m 744.223,1771.68 c 7.468,-10.14 15.3,-16.36 31.843,-14.05 -4.984,-10.67 -11.207,-14.41 -29.527,-13.88 0.352,2.68 0.531,5.7 1.598,9.79 -5.512,4.62 -5.157,11.74 -3.914,18.14" /><path
         id="path214"
         style="fill:none;stroke:#1a67bb;stroke-width:0.47499999;stroke-linecap:butt;stroke-linejoin:miter;stroke-miterlimit:4;stroke-dasharray:none;stroke-opacity:1"
         d="m 744.223,1771.68 c 7.468,-10.14 15.3,-16.36 31.843,-14.05 -4.984,-10.67 -11.207,-14.41 -29.527,-13.88 0.352,2.68 0.531,5.7 1.598,9.79 -5.512,4.62 -5.157,11.74 -3.914,18.14 z" /><path
         id="path216"
         style="fill:none;stroke:#1a67bb;stroke-width:14.22700024;stroke-linecap:butt;stroke-linejoin:miter;stroke-miterlimit:4;stroke-dasharray:none;stroke-opacity:1"
         d="m 1216.13,1644.86 c -7.47,30.59 -27.4,52.29 -48.74,61.9 -16.87,7.59 -71.87,7.11 -84.67,35.57" /><path
         id="path218"
         style="fill:none;stroke:#1a67bb;stroke-width:14.22700024;stroke-linecap:butt;stroke-linejoin:miter;stroke-miterlimit:4;stroke-dasharray:none;stroke-opacity:1"
         d="m 1217.2,1593.27 c -17.08,25.26 -26.33,38.43 -58.7,53.37 -16.8,7.75 -59.95,5.86 -73.82,33.26" /><path
         id="path220"
         style="fill:none;stroke:#1a67bb;stroke-width:14.22700024;stroke-linecap:butt;stroke-linejoin:miter;stroke-miterlimit:4;stroke-dasharray:none;stroke-opacity:1"
         d="m 1218.79,1517.02 c -7.48,30.6 -25.79,52.3 -47.13,61.91 -16.87,7.59 -72.57,6.16 -85.39,34.62" /><path
         id="path222"
         style="fill:#1a67bb;fill-opacity:1;fill-rule:nonzero;stroke:none"
         d="m 1157.73,1331.02 c 12.18,-5.53 26.08,7.02 35.98,8.61 -17.78,0 -32.01,1.41 -43.4,28.46 -11.38,27.03 -9.25,80.39 -52.65,85.37 26.33,-9.96 32.15,-56.68 35.93,-82.89 2.21,-15.3 14.43,-35.13 24.14,-39.55" /><path
         id="path224"
         style="fill:none;stroke:#1a67bb;stroke-width:0.47499999;stroke-linecap:butt;stroke-linejoin:miter;stroke-miterlimit:4;stroke-dasharray:none;stroke-opacity:1"
         d="m 1157.73,1331.02 c 12.18,-5.53 26.08,7.02 35.98,8.61 -17.78,0 -32.01,1.41 -43.4,28.46 -11.38,27.03 -9.25,80.39 -52.65,85.37 26.33,-9.96 32.15,-56.68 35.93,-82.89 2.21,-15.3 14.43,-35.13 24.14,-39.55 z" /><path
         id="path226"
         style="fill:#1a67bb;fill-opacity:1;fill-rule:nonzero;stroke:none"
         d="m 1075.8,1302.56 c 10.48,-8.32 29.85,3.7 39.84,2.84 -17.26,4.3 -43.18,9.13 -47.68,38.11 -4.51,28.99 8.33,79.18 -32.58,94.51 23.14,-16.03 15.89,-62.64 15.62,-89.12 -0.2,-20.3 13.93,-40.58 24.8,-46.34" /><path
         id="path228"
         style="fill:none;stroke:#1a67bb;stroke-width:0.47499999;stroke-linecap:butt;stroke-linejoin:miter;stroke-miterlimit:4;stroke-dasharray:none;stroke-opacity:1"
         d="m 1075.8,1302.56 c 10.48,-8.32 29.85,3.7 39.84,2.84 -17.26,4.3 -43.18,9.13 -47.68,38.11 -4.51,28.99 8.33,79.18 -32.58,94.51 23.14,-16.03 15.89,-62.64 15.62,-89.12 -0.2,-20.3 13.93,-40.58 24.8,-46.34 z" /><path
         id="path230"
         style="fill:#1a67bb;fill-opacity:1;fill-rule:nonzero;stroke:none"
         d="m 1001.09,1286.91 c 10.48,-8.32 29.85,3.7 39.84,2.84 -28.66,7.14 -40.39,14.3 -44.125,48.78 -3.157,29.17 9.045,83.45 -31.867,98.78 23.136,-16.03 15.187,-66.91 14.917,-93.38 -0.296,-28.92 6.665,-49.3 21.235,-57.02" /><path
         id="path232"
         style="fill:none;stroke:#1a67bb;stroke-width:0.47499999;stroke-linecap:butt;stroke-linejoin:miter;stroke-miterlimit:4;stroke-dasharray:none;stroke-opacity:1"
         d="m 1001.09,1286.91 c 10.48,-8.32 29.85,3.7 39.84,2.84 -28.66,7.14 -40.39,14.3 -44.125,48.78 -3.157,29.17 9.045,83.45 -31.867,98.78 23.136,-16.03 15.187,-66.91 14.917,-93.38 -0.296,-28.92 6.665,-49.3 21.235,-57.02 z" /><path
         id="path234"
         style="fill:#1a67bb;fill-opacity:1;fill-rule:nonzero;stroke:none"
         d="m 922.824,1284.77 c 13.145,-9.95 22.383,1.57 32.371,0.71 -27.582,9.32 -33.988,25.68 -34.316,52.8 -0.359,29.33 16.332,82.34 -23.07,101.2 21.636,-18 9.254,-67.99 6.66,-94.34 -2.836,-28.77 4.644,-49.98 18.355,-60.37" /><path
         id="path236"
         style="fill:none;stroke:#1a67bb;stroke-width:0.47499999;stroke-linecap:butt;stroke-linejoin:miter;stroke-miterlimit:4;stroke-dasharray:none;stroke-opacity:1"
         d="m 922.824,1284.77 c 13.145,-9.95 22.383,1.57 32.371,0.71 -27.582,9.32 -33.988,25.68 -34.316,52.8 -0.359,29.33 16.332,82.34 -23.07,101.2 21.636,-18 9.254,-67.99 6.66,-94.34 -2.836,-28.77 4.644,-49.98 18.355,-60.37 z" /><path
         id="path238"
         style="fill:#1a67bb;fill-opacity:1;fill-rule:nonzero;stroke:none"
         d="m 838.508,1292.6 c 13.148,-9.96 15.629,-1.28 25.617,-2.14 -18.691,13.23 -30.242,33.51 -30.242,54.23 0,29.33 45.699,84.47 6.289,103.33 21.644,-18 -20.91,-70.13 -23.504,-96.48 -2.836,-28.77 8.133,-48.56 21.84,-58.94" /><path
         id="path240"
         style="fill:none;stroke:#1a67bb;stroke-width:0.47499999;stroke-linecap:butt;stroke-linejoin:miter;stroke-miterlimit:4;stroke-dasharray:none;stroke-opacity:1"
         d="m 838.508,1292.6 c 13.148,-9.96 15.629,-1.28 25.617,-2.14 -18.691,13.23 -30.242,33.51 -30.242,54.23 0,29.33 45.699,84.47 6.289,103.33 21.644,-18 -20.91,-70.13 -23.504,-96.48 -2.836,-28.77 8.133,-48.56 21.84,-58.94 z" /><path
         id="path242"
         style="fill:#1a67bb;fill-opacity:1;fill-rule:nonzero;stroke:none"
         d="m 1198.78,577.035 c 17.7,-10.883 50.07,-11.988 94.54,-9.387 -52.09,8.266 -108.47,13.313 -99.61,96.766 -17.57,-20.426 -25.61,-57.277 5.07,-87.379" /><path
         id="path244"
         style="fill:none;stroke:#1a67bb;stroke-width:0.47499999;stroke-linecap:butt;stroke-linejoin:miter;stroke-miterlimit:4;stroke-dasharray:none;stroke-opacity:1"
         d="m 1198.78,577.035 c 17.7,-10.883 50.07,-11.988 94.54,-9.387 -52.09,8.266 -108.47,13.313 -99.61,96.766 -17.57,-20.426 -25.61,-57.277 5.07,-87.379 z" /><path
         id="path246"
         style="fill:#1a67bb;fill-opacity:1;fill-rule:nonzero;stroke:none"
         d="m 1140.35,601.801 c -14.94,25.613 -19.92,69.015 6.4,93.203 -27.03,-3.555 -42.68,-38.422 -46.95,-54.785 l 40.55,-38.418" /><path
         id="path248"
         style="fill:none;stroke:#1a67bb;stroke-width:0.47499999;stroke-linecap:butt;stroke-linejoin:miter;stroke-miterlimit:4;stroke-dasharray:none;stroke-opacity:1"
         d="m 1140.35,601.801 c -14.94,25.613 -19.92,69.015 6.4,93.203 -27.03,-3.555 -42.68,-38.422 -46.95,-54.785 z" /><path
         id="path250"
         style="fill:#1a67bb;fill-opacity:1;fill-rule:nonzero;stroke:none"
         d="m 1094.46,639.867 c -8.54,27.391 -13.52,80.399 33.79,99.61 -23.83,5.687 -55.49,-24.551 -57.98,-45.539 l 24.19,-54.071" /><path
         id="path252"
         style="fill:none;stroke:#1a67bb;stroke-width:0.47499999;stroke-linecap:butt;stroke-linejoin:miter;stroke-miterlimit:4;stroke-dasharray:none;stroke-opacity:1"
         d="m 1094.46,639.867 c -8.54,27.391 -13.52,80.399 33.79,99.61 -23.83,5.687 -55.49,-24.551 -57.98,-45.539 z" /><path
         id="path254"
         style="fill:#1a67bb;fill-opacity:1;fill-rule:nonzero;stroke:none"
         d="m 637.32,736.273 c 12.809,15.653 34.157,31.305 48.383,47.668 -22.055,-36.281 -29.883,-77.55 -22.769,-119.527 l -25.614,71.859" /><path
         id="path256"
         style="fill:none;stroke:#1a67bb;stroke-width:0.47499999;stroke-linecap:butt;stroke-linejoin:miter;stroke-miterlimit:4;stroke-dasharray:none;stroke-opacity:1"
         d="m 637.32,736.273 c 12.809,15.653 34.157,31.305 48.383,47.668 -22.055,-36.281 -29.883,-77.55 -22.769,-119.527 z" /><path
         id="path258"
         style="fill:#1a67bb;fill-opacity:1;fill-rule:nonzero;stroke:none"
         d="m 693.531,628.836 25.614,5.691 c -11.387,17.786 -14.942,52.649 -3.555,77.555 -29.887,-19.211 -24.195,-55.5 -22.059,-83.246" /><path
         id="path260"
         style="fill:none;stroke:#1a67bb;stroke-width:0.47499999;stroke-linecap:butt;stroke-linejoin:miter;stroke-miterlimit:4;stroke-dasharray:none;stroke-opacity:1"
         d="m 693.531,628.836 25.614,5.691 c -11.387,17.786 -14.942,52.649 -3.555,77.555 -29.887,-19.211 -24.195,-55.5 -22.059,-83.246 z" /><path
         id="path262"
         style="fill:#1a67bb;fill-opacity:1;fill-rule:nonzero;stroke:none"
         d="m 1226.44,467.68 -3.56,-26.325 c -18.85,8.895 -41.97,1.067 -51.58,-7.828 2.13,20.989 6.76,44.828 55.14,34.153" /><path
         id="path264"
         style="fill:none;stroke:#1a67bb;stroke-width:7.11499977;stroke-linecap:butt;stroke-linejoin:miter;stroke-miterlimit:4;stroke-dasharray:none;stroke-opacity:1"
         d="m 1226.44,467.68 -3.56,-26.325 c -18.85,8.895 -41.97,1.067 -51.58,-7.828 2.13,20.989 6.76,44.828 55.14,34.153 z" /><path
         id="path266"
         style="fill:#1a67bb;fill-opacity:1;fill-rule:nonzero;stroke:none"
         d="m 1211.14,407.914 c -22.97,2.129 -37.74,-14.695 -36.28,-42.328 12.45,7.82 37,14.937 49.09,14.223 l -12.81,28.105" /><path
         id="path268"
         style="fill:none;stroke:#1a67bb;stroke-width:7.11499977;stroke-linecap:butt;stroke-linejoin:miter;stroke-miterlimit:4;stroke-dasharray:none;stroke-opacity:1"
         d="m 1211.14,407.914 c -22.97,2.129 -37.74,-14.695 -36.28,-42.328 12.45,7.82 37,14.937 49.09,14.223 z" /><path
         id="path270"
         style="fill:#1a67bb;fill-opacity:1;fill-rule:nonzero;stroke:none"
         d="m 1225.02,450.609 c 23.83,-23.484 64.03,-10.675 82.89,-26.687 -14.59,-12.094 -39.13,-2.844 -45.89,-2.844 -6.76,0 -21.35,5.695 -36.64,-4.625 l 15.65,17.074 -16.01,17.082" /><path
         id="path272"
         style="fill:none;stroke:#1a67bb;stroke-width:0.47499999;stroke-linecap:butt;stroke-linejoin:miter;stroke-miterlimit:4;stroke-dasharray:none;stroke-opacity:1"
         d="m 1225.02,450.609 c 23.83,-23.484 64.03,-10.675 82.89,-26.687 -14.59,-12.094 -39.13,-2.844 -45.89,-2.844 -6.76,0 -21.35,5.695 -36.64,-4.625 l 15.65,17.074 z" /><path
         id="path274"
         style="fill:#1a67bb;fill-opacity:1;fill-rule:nonzero;stroke:none"
         d="m 1238.89,376.965 c 26.68,1.422 64.75,24.547 87.87,4.269 -25.96,-0.711 -44.47,-19.921 -53,-36.64 l 9.25,30.594 -44.12,1.777" /><path
         id="path276"
         style="fill:none;stroke:#1a67bb;stroke-width:0.47499999;stroke-linecap:butt;stroke-linejoin:miter;stroke-miterlimit:4;stroke-dasharray:none;stroke-opacity:1"
         d="m 1238.89,376.965 c 26.68,1.422 64.75,24.547 87.87,4.269 -25.96,-0.711 -44.47,-19.921 -53,-36.64 l 9.25,30.594 z" /><path
         id="path278"
         style="fill:#1a67bb;fill-opacity:1;fill-rule:nonzero;stroke:none"
         d="m 1263.44,362.383 3.13,-12.848 7.9,-10.281 c -19.21,-2.129 -31.31,-15.844 -36.65,-29.715 -11.38,20.637 -0.35,44.656 25.62,52.844" /><path
         id="path280"
         style="fill:none;stroke:#1a67bb;stroke-width:7.11499977;stroke-linecap:butt;stroke-linejoin:miter;stroke-miterlimit:4;stroke-dasharray:none;stroke-opacity:1"
         d="m 1263.44,362.383 3.13,-12.848 7.9,-10.281 c -19.21,-2.129 -31.31,-15.844 -36.65,-29.715 -11.38,20.637 -0.35,44.656 25.62,52.844 z" /><path
         id="path282"
         style="fill:#1a67bb;fill-opacity:1;fill-rule:nonzero;stroke:none"
         d="m 639.813,502.723 c 11.382,-19.746 38.421,-46.067 49.093,-51.41 -7.117,-9.247 -34.508,-15.293 -59.41,18.859 L 664,457.012 639.813,502.723" /><path
         id="path284"
         style="fill:none;stroke:#1a67bb;stroke-width:0.47499999;stroke-linecap:butt;stroke-linejoin:miter;stroke-miterlimit:4;stroke-dasharray:none;stroke-opacity:1"
         d="m 639.813,502.723 c 11.382,-19.746 38.421,-46.067 49.093,-51.41 -7.117,-9.247 -34.508,-15.293 -59.41,18.859 L 664,457.012 Z" /><path
         id="path286"
         style="fill:#1a67bb;fill-opacity:1;fill-rule:nonzero;stroke:none"
         d="m 620.395,407.859 c -12.348,3.551 -22.27,-2.668 -28.711,6.032 -4.157,5.609 -0.965,19.285 -9.504,31.734 20.281,-16.363 60.832,-32.113 101.035,-30.332 -3.207,-10.605 -34.508,-15.559 -62.82,-7.434" /><path
         id="path288"
         style="fill:none;stroke:#1a67bb;stroke-width:0.47499999;stroke-linecap:butt;stroke-linejoin:miter;stroke-miterlimit:4;stroke-dasharray:none;stroke-opacity:1"
         d="m 620.395,407.859 c -12.348,3.551 -22.27,-2.668 -28.711,6.032 -4.157,5.609 -0.965,19.285 -9.504,31.734 20.281,-16.363 60.832,-32.113 101.035,-30.332 -3.207,-10.605 -34.508,-15.559 -62.82,-7.434 z" /><path
         id="path290"
         style="fill:#1a67bb;fill-opacity:1;fill-rule:nonzero;stroke:none"
         d="m 646.219,364.16 c 20.277,10.313 50.871,33.442 106.367,17.074 -35.93,-3.203 -54.07,-7.113 -60.836,-28.816 l 1.07,22.055 -46.601,-10.313" /><path
         id="path292"
         style="fill:none;stroke:#1a67bb;stroke-width:0.47499999;stroke-linecap:butt;stroke-linejoin:miter;stroke-miterlimit:4;stroke-dasharray:none;stroke-opacity:1"
         d="m 646.219,364.16 c 20.277,10.313 50.871,33.442 106.367,17.074 -35.93,-3.203 -54.07,-7.113 -60.836,-28.816 l 1.07,22.055 z" /><path
         id="path294"
         style="fill:#1a67bb;fill-opacity:1;fill-rule:nonzero;stroke:none"
         d="m 683.215,350.285 c -24.195,-13.16 -7.828,-29.883 0,-54.785 6.047,17.789 15.652,33.082 19.922,36.996 -6.762,2.133 -16.367,3.203 -19.922,17.789" /><path
         id="path296"
         style="fill:none;stroke:#1a67bb;stroke-width:7.11499977;stroke-linecap:butt;stroke-linejoin:miter;stroke-miterlimit:4;stroke-dasharray:none;stroke-opacity:1"
         d="m 683.215,350.285 c -24.195,-13.16 -7.828,-29.883 0,-54.785 6.047,17.789 15.652,33.082 19.922,36.996 -6.762,2.133 -16.367,3.203 -19.922,17.789 z" /><path
         id="path298"
         style="fill:#1a67bb;fill-opacity:1;fill-rule:nonzero;stroke:none"
         d="m 585.023,393.684 c 0,2.043 -3.183,5.578 -4.796,7.418 -2.688,3.074 -5.164,6.105 -8.719,6.105 -5.692,0 -20.988,-5.34 -15.297,-45.184 12.449,14.231 28.812,11.028 28.812,31.661" /><path
         id="path300"
         style="fill:none;stroke:#1a67bb;stroke-width:7.11499977;stroke-linecap:butt;stroke-linejoin:miter;stroke-miterlimit:4;stroke-dasharray:none;stroke-opacity:1"
         d="m 585.023,393.684 c 0,2.043 -3.183,5.578 -4.796,7.418 -2.688,3.074 -5.164,6.105 -8.719,6.105 -5.692,0 -20.988,-5.34 -15.297,-45.184 12.449,14.231 28.812,11.028 28.812,31.661 z" /><path
         id="path302"
         style="fill:#1a67bb;fill-opacity:1;fill-rule:nonzero;stroke:none"
         d="m 576.035,447.828 c -0.222,2.039 -3.801,4.613 -4.91,6.676 -1.828,3.402 -1.852,7.449 -5.227,8.527 -5.421,1.735 -33.168,-6.019 -28.695,-42.992 16.195,9.762 39.996,17.051 38.832,27.789" /><path
         id="path304"
         style="fill:none;stroke:#1a67bb;stroke-width:7.11499977;stroke-linecap:butt;stroke-linejoin:miter;stroke-miterlimit:4;stroke-dasharray:none;stroke-opacity:1"
         d="m 576.035,447.828 c -0.222,2.039 -3.801,4.613 -4.91,6.676 -1.828,3.402 -1.852,7.449 -5.227,8.527 -5.421,1.735 -33.168,-6.019 -28.695,-42.992 16.195,9.762 39.996,17.051 38.832,27.789 z" /><path
         id="path306"
         style="fill:#1a67bb;fill-opacity:1;fill-rule:nonzero;stroke:none"
         d="m 644.438,516.773 c -0.454,-1.664 -8.442,-3.738 -11.297,-8.234 -3.844,-6.059 -3.016,-14.492 -5.782,-13.109 -7.113,3.558 -28.461,5.691 -39.132,3.558 1.425,17.43 26.324,38.778 56.211,17.785" /><path
         id="path308"
         style="fill:none;stroke:#1a67bb;stroke-width:7.11499977;stroke-linecap:butt;stroke-linejoin:miter;stroke-miterlimit:4;stroke-dasharray:none;stroke-opacity:1"
         d="m 644.438,516.773 c -0.454,-1.664 -8.442,-3.738 -11.297,-8.234 -3.844,-6.059 -3.016,-14.492 -5.782,-13.109 -7.113,3.558 -28.461,5.691 -39.132,3.558 1.425,17.43 26.324,38.778 56.211,17.785 z" /><path
         id="path310"
         style="fill:#1a67bb;fill-opacity:1;fill-rule:nonzero;stroke:none"
         d="m 947.535,484.402 c -15.469,43.45 -67.965,54.606 -74.707,83.246 17.074,-8.183 51.582,-22.058 59.766,-41.269 8.179,-19.211 14.941,-41.977 14.941,-41.977" /><path
         id="path312"
         style="fill:none;stroke:#1a67bb;stroke-width:0.47499999;stroke-linecap:butt;stroke-linejoin:miter;stroke-miterlimit:4;stroke-dasharray:none;stroke-opacity:1"
         d="m 947.535,484.402 c -15.469,43.45 -67.965,54.606 -74.707,83.246 17.074,-8.183 51.582,-22.058 59.766,-41.269 8.179,-19.211 14.941,-41.977 14.941,-41.977 z" /><path
         id="path314"
         style="fill:#1a67bb;fill-opacity:1;fill-rule:nonzero;stroke:none"
         d="m 930.813,419.297 c -3.555,35.125 -22.176,58.445 -45.891,80.402 19.566,-10.316 49.808,-20.988 57.988,-23.836 l 2.488,-8.535 -18.851,0.352 4.266,-48.383" /><path
         id="path316"
         style="fill:none;stroke:#1a67bb;stroke-width:0.47499999;stroke-linecap:butt;stroke-linejoin:miter;stroke-miterlimit:4;stroke-dasharray:none;stroke-opacity:1"
         d="m 930.813,419.297 c -3.555,35.125 -22.176,58.445 -45.891,80.402 19.566,-10.316 49.808,-20.988 57.988,-23.836 l 2.488,-8.535 -18.851,0.352 z" /><path
         id="path318"
         style="fill:#1a67bb;fill-opacity:1;fill-rule:nonzero;stroke:none"
         d="m 916.938,391.195 c -17.071,12.453 -35.93,49.805 -46.247,65.461 3.914,-24.195 8.543,-56.566 4.981,-75.777 l 7.113,26.328 34.153,-16.012" /><path
         id="path320"
         style="fill:none;stroke:#1a67bb;stroke-width:0.47499999;stroke-linecap:butt;stroke-linejoin:miter;stroke-miterlimit:4;stroke-dasharray:none;stroke-opacity:1"
         d="m 916.938,391.195 c -17.071,12.453 -35.93,49.805 -46.247,65.461 3.914,-24.195 8.543,-56.566 4.981,-75.777 l 7.113,26.328 z" /><path
         id="path322"
         style="fill:#1a67bb;fill-opacity:1;fill-rule:nonzero;stroke:none"
         d="m 1120.11,844.094 c 5.15,13.972 0,31.933 18.49,44.875 14.79,-12.942 -30.97,-68.028 -38.09,-77.278 -7.12,-9.25 19.6,32.403 19.6,32.403" /><path
         id="path324"
         style="fill:none;stroke:#1a67bb;stroke-width:0.47499999;stroke-linecap:butt;stroke-linejoin:miter;stroke-miterlimit:4;stroke-dasharray:none;stroke-opacity:1"
         d="m 1120.11,844.094 c 5.15,13.972 0,31.933 18.49,44.875 14.79,-12.942 -30.97,-68.028 -38.09,-77.278 -7.12,-9.25 19.6,32.403 19.6,32.403 z" /><path
         id="path326"
         style="fill:#1a67bb;fill-opacity:1;fill-rule:nonzero;stroke:none"
         d="m 872.926,1661.39 39.75,16.19 53.472,-24.78 -3.558,-9.5 -89.664,18.09" /><path
         id="path328"
         style="fill:none;stroke:#1a67bb;stroke-width:0.47499999;stroke-linecap:butt;stroke-linejoin:miter;stroke-miterlimit:4;stroke-dasharray:none;stroke-opacity:1"
         d="m 872.926,1661.39 39.75,16.19 53.472,-24.78 -3.558,-9.5 z" /><path
         id="path330"
         style="fill:#1a67bb;fill-opacity:1;fill-rule:nonzero;stroke:none"
         d="m 1149.23,1157.07 c 12.18,-5.53 26.08,7.02 35.98,8.6 -17.78,0 -32.01,1.42 -43.4,28.46 -11.38,27.04 19.35,70.03 -24.05,75.01 26.33,-9.96 3.55,-46.31 7.33,-72.52 2.21,-15.3 14.43,-35.13 24.14,-39.55" /><path
         id="path332"
         style="fill:none;stroke:#1a67bb;stroke-width:0.47499999;stroke-linecap:butt;stroke-linejoin:miter;stroke-miterlimit:4;stroke-dasharray:none;stroke-opacity:1"
         d="m 1149.23,1157.07 c 12.18,-5.53 26.08,7.02 35.98,8.6 -17.78,0 -32.01,1.42 -43.4,28.46 -11.38,27.04 19.35,70.03 -24.05,75.01 26.33,-9.96 3.55,-46.31 7.33,-72.52 2.21,-15.3 14.43,-35.13 24.14,-39.55 z" /><path
         id="path334"
         style="fill:#1a67bb;fill-opacity:1;fill-rule:nonzero;stroke:none"
         d="m 1074.69,1120.71 c 10.49,-8.32 29.85,3.7 39.85,2.84 -17.26,4.3 -43.18,9.12 -47.69,38.11 -4.51,28.99 15.52,70.8 -25.39,86.13 23.14,-16.03 8.71,-54.26 8.44,-80.74 -0.21,-20.31 13.92,-40.59 24.79,-46.34" /><path
         id="path336"
         style="fill:none;stroke:#1a67bb;stroke-width:0.47499999;stroke-linecap:butt;stroke-linejoin:miter;stroke-miterlimit:4;stroke-dasharray:none;stroke-opacity:1"
         d="m 1074.69,1120.71 c 10.49,-8.32 29.85,3.7 39.85,2.84 -17.26,4.3 -43.18,9.12 -47.69,38.11 -4.51,28.99 15.52,70.8 -25.39,86.13 23.14,-16.03 8.71,-54.26 8.44,-80.74 -0.21,-20.31 13.92,-40.59 24.79,-46.34 z" /><path
         id="path338"
         style="fill:#1a67bb;fill-opacity:1;fill-rule:nonzero;stroke:none"
         d="m 998.133,1106.9 c 10.487,-8.32 29.857,3.7 39.847,2.85 -28.67,7.14 -40.394,14.3 -44.128,48.77 -3.161,29.17 16.228,75.08 -24.68,90.41 23.137,-16.03 8,-58.54 7.726,-85.01 -0.293,-28.92 6.668,-49.29 21.235,-57.02" /><path
         id="path340"
         style="fill:none;stroke:#1a67bb;stroke-width:0.47499999;stroke-linecap:butt;stroke-linejoin:miter;stroke-miterlimit:4;stroke-dasharray:none;stroke-opacity:1"
         d="m 998.133,1106.9 c 10.487,-8.32 29.857,3.7 39.847,2.85 -28.67,7.14 -40.394,14.3 -44.128,48.77 -3.161,29.17 16.228,75.08 -24.68,90.41 23.137,-16.03 8,-58.54 7.726,-85.01 -0.293,-28.92 6.668,-49.29 21.235,-57.02 z" /><path
         id="path342"
         style="fill:#1a67bb;fill-opacity:1;fill-rule:nonzero;stroke:none"
         d="m 903.23,1108.97 c 13.145,-9.96 24.204,-3.18 34.196,-4.04 -27.582,9.32 -35.809,30.43 -36.141,57.55 -0.359,29.33 21.93,66.45 -17.472,85.31 21.632,-18 3.656,-52.1 1.062,-78.45 -2.836,-28.78 4.645,-49.99 18.355,-60.37" /><path
         id="path344"
         style="fill:none;stroke:#1a67bb;stroke-width:0.47499999;stroke-linecap:butt;stroke-linejoin:miter;stroke-miterlimit:4;stroke-dasharray:none;stroke-opacity:1"
         d="m 903.23,1108.97 c 13.145,-9.96 24.204,-3.18 34.196,-4.04 -27.582,9.32 -35.809,30.43 -36.141,57.55 -0.359,29.33 21.93,66.45 -17.472,85.31 21.632,-18 3.656,-52.1 1.062,-78.45 -2.836,-28.78 4.645,-49.99 18.355,-60.37 z" /><path
         id="path346"
         style="fill:none;stroke:#1a67bb;stroke-width:19.92000008;stroke-linecap:butt;stroke-linejoin:miter;stroke-miterlimit:4;stroke-dasharray:none;stroke-opacity:1"
         d="m 650.938,1440.84 0.109,2.65 c -13.863,4.42 -25.727,16.89 -25.727,29.89 0,12.81 4.985,37 41.981,37 37,0 93.918,-49.8 93.918,-137.31 0,-87.52 -25.34,-227.95 -241.629,-438.554 -216.301,210.604 -236.61,337.754 -236.61,425.274 0,87.51 36.586,144.7 73.583,144.7 37.003,0 41.98,-24.19 41.98,-37 0,-13 -11.859,-25.47 -25.727,-29.89 l 0.114,-2.65" /><path
         id="path348"
         style="fill:#fab218;fill-opacity:1;fill-rule:nonzero;stroke:none"
         d="m 452.273,1483.98 c -16.476,-3.62 -26.511,-9.58 -26.511,-23.57 0,-28.73 24.758,-50.23 41.242,-50.54 9.488,5.23 17.676,17.39 17.676,29.92 0,20.62 -14.504,39.16 -32.407,44.19" /><path
         id="path350"
         style="fill:none;stroke:#1a67bb;stroke-width:14.17300034;stroke-linecap:butt;stroke-linejoin:miter;stroke-miterlimit:3.8636899;stroke-dasharray:none;stroke-opacity:1"
         d="m 452.273,1483.98 c -16.476,-3.62 -26.511,-9.58 -26.511,-23.57 0,-28.73 24.758,-50.23 41.242,-50.54 9.488,5.23 17.676,17.39 17.676,29.92 0,20.62 -14.504,39.16 -32.407,44.19 z" /><path
         id="path352"
         style="fill:#fab218;fill-opacity:1;fill-rule:nonzero;stroke:none"
         d="m 505.305,1492.81 c -32.864,-14.73 -6.629,-82.94 20.621,-82.94 18.414,0 22.16,5.66 23.57,24.02 2.945,38.3 -5.894,65.27 -44.191,58.92" /><path
         id="path354"
         style="fill:none;stroke:#1a67bb;stroke-width:14.17300034;stroke-linecap:butt;stroke-linejoin:miter;stroke-miterlimit:3.8636899;stroke-dasharray:none;stroke-opacity:1"
         d="m 505.305,1492.81 c -32.864,-14.73 -6.629,-82.94 20.621,-82.94 18.414,0 22.16,5.66 23.57,24.02 2.945,38.3 -5.894,65.27 -44.191,58.92 z" /><path
         id="path356"
         style="fill:#fab218;fill-opacity:1;fill-rule:nonzero;stroke:none"
         d="m 599.578,1486.92 c -1.676,6.07 -11.051,24.03 -20.625,24.03 -18.414,0 -32.406,-15.47 -32.406,-33.88 0,-25.05 7.363,-54.51 32.406,-54.51 27.254,0 25.043,37.11 20.625,64.36" /><path
         id="path358"
         style="fill:none;stroke:#1a67bb;stroke-width:14.17300034;stroke-linecap:butt;stroke-linejoin:miter;stroke-miterlimit:3.8636899;stroke-dasharray:none;stroke-opacity:1"
         d="m 599.578,1486.92 c -1.676,6.07 -11.051,24.03 -20.625,24.03 -18.414,0 -32.406,-15.47 -32.406,-33.88 0,-25.05 7.363,-54.51 32.406,-54.51 27.254,0 25.043,37.11 20.625,64.36 z" /><path
         id="path360"
         style="fill:#fab218;fill-opacity:1;fill-rule:nonzero;stroke:none"
         d="m 579.41,1513.89 c -11.047,22.1 -31.387,29.46 -56.43,29.46 -41.246,0 -103.57,-15.18 -103.57,-56.43 0,-11.05 44.192,5.89 55.977,-11.78 11.847,-17.78 11.504,17.67 32.863,17.67 14.73,0 20.867,-9.65 32.406,-5.89 19.375,6.31 19.344,29.22 38.754,26.97" /><path
         id="path362"
         style="fill:none;stroke:#1a67bb;stroke-width:17.00799942;stroke-linecap:butt;stroke-linejoin:miter;stroke-miterlimit:3.8636899;stroke-dasharray:none;stroke-opacity:1"
         d="m 579.41,1513.89 c -11.047,22.1 -31.387,29.46 -56.43,29.46 -41.246,0 -103.57,-15.18 -103.57,-56.43 0,-11.05 44.192,5.89 55.977,-11.78 11.847,-17.78 11.504,17.67 32.863,17.67 14.73,0 20.867,-9.65 32.406,-5.89 19.375,6.31 19.344,29.22 38.754,26.97 z" /><path
         id="path364"
         style="fill:none;stroke:#1a67bb;stroke-width:19.92000008;stroke-linecap:butt;stroke-linejoin:miter;stroke-miterlimit:4;stroke-dasharray:none;stroke-opacity:1"
         d="m 1563.7,1582.25 c -22.06,-32.73 -57.64,-52.66 -98.91,-72.58 -4.97,-41.27 -17.78,-76.84 -37.7,-113.83 -3.56,14.93 -3.56,24.89 -11.39,36.99 0.71,-26.33 -12.81,-64.74 -32.73,-99.61 -1.42,18.5 -2.84,39.49 -11.74,59.06 -1.78,-25.98 -13.87,-68.31 -33.09,-105.31 -4.26,12.1 -7.11,27.75 -14.23,37.71 -7.82,-57.63 -81.1,-87.51 -81.1,-162.22 0,-37 26.02,-90.48 56.3,-124.51 63.94,-71.864 108.05,-122.38 119.44,-202.067 14.94,-14.942 42.68,-19.211 61.9,-19.211 34.86,0 56.92,31.308 56.92,65.457 0,59.766 -83.24,107.437 -83.24,208.471 0,37 12.08,61.19 34.85,77.55 l 24.91,-55.49 c -33.09,-54.08 31.31,-122.383 54.07,-153.691 1.42,8.187 0.38,18.441 -1.25,27.722 -18.1,103.299 -109.75,197.669 -109.75,298.859 0,91.07 62.62,138.75 125.23,138.75 49.81,0 101.04,-7.12 127.36,-29.89 38.1,-32.95 41.98,-68.3 48.38,-112.41 l -12.8,6.39 c 5.69,-13.51 7.82,-46.95 9.25,-62.6 l -10.68,6.4 c 13.52,-19.92 -6.4,-56.21 -18.5,-59.77 11.39,33.44 -93.91,39.13 -93.91,125.94 0,61.19 -15.66,73.99 -49.81,73.99 -34.15,0 -76.84,-29.17 -76.84,-88.93 0,-96.77 116.68,-214.17 116.68,-362.865 0,-156.535 -106.72,-169.34 -133.05,-169.34 -26.32,0 -50.51,4.976 -82.53,14.941 -7.83,-29.172 -18.04,-58.468 -1.42,-93.207 15.65,-32.73 65.07,-23.492 104.59,-44.113 32.73,-17.078 35.57,-45.535 39.84,-88.227 l -13.52,2.848 c 11.39,-11.383 13.52,-26.328 14.95,-49.805 l -13.52,1.422 c 9.96,-13.519 9.24,-50.519 6.4,-64.746 -10.67,9.961 -22.77,8.543 -39.13,20.633 10.67,-46.25 -13.52,-114.551 -85.38,-114.551 -17.79,0 -31.31,8.539 -37.71,22.059 -14.23,-16.367 -49.81,-20.633 -64.75,-20.633 -14.94,0 -39.13,4.977 -51.23,11.383 3.56,8.539 7.83,16.367 15.66,22.765 -54.08,-0.714 -61.9,9.961 -72.57,24.192 2.13,12.094 13.51,28.461 28.46,35.578 -7.12,4.266 -12.11,13.516 -16.37,24.902 12.8,25.614 37.71,27.035 55.5,27.035 46.96,0 51.22,-37.711 94.62,-37.711 29.89,0 27.04,44.825 24.2,75.418 -2.85,30.598 -30.6,44.114 -47.68,44.114 -17.07,0 -55.49,0 -81.82,0 -26.32,0 -46.24,8.183 -63.32,25.968 1.42,-7.824 9.96,-18.496 25.62,-25.613 -55.15,1.781 -105.31,32.375 -111,85.738 -4.98,-4.269 -10.67,-12.808 -12.81,-25.613 -16.36,15.653 -28.46,40.555 -23.48,69.723 -1.42,-2.133 -8.53,-8.539 -9.96,-11.383 -3.55,7.828 -9.25,27.039 -9.25,44.113 0,35.575 38.43,89.649 62.61,125.227 -26.39,80.656 -83.17,107.644 -115.26,128.07 -31.303,19.918 -65.455,56.918 -95.334,85.378 -13.031,12.41 -37.145,40.49 -65.977,70.95 -9.14,9.65 -44.527,5.38 -54.41,15.08 -10.219,10.03 -12.426,28.24 -5.535,43.19 -20.961,18.16 -30.723,27.43 -50.461,36.7" /></g></g></svg>